<?xml version="1.0" encoding="UTF-8" standalone="no"?>
<!-- Generator: Adobe Illustrator 24.1.1, SVG Export Plug-In . SVG Version: 6.00 Build 0)  -->

<svg
   version="1.1"
   id="Layer_1"
   x="0px"
   y="0px"
   viewBox="0 0 512 512"
   style="enable-background:new 0 0 512 512;"
   xml:space="preserve"
   sodipodi:docname="add.svg"
   inkscape:version="1.2 (dc2aedaf03, 2022-05-15)"
   xmlns:inkscape="http://www.inkscape.org/namespaces/inkscape"
   xmlns:sodipodi="http://sodipodi.sourceforge.net/DTD/sodipodi-0.dtd"
   xmlns="http://www.w3.org/2000/svg"
   xmlns:svg="http://www.w3.org/2000/svg"><defs
   id="defs9">
	
</defs><sodipodi:namedview
   id="namedview7"
   pagecolor="#505050"
   bordercolor="#ffffff"
   borderopacity="1"
   inkscape:showpageshadow="0"
   inkscape:pageopacity="0"
   inkscape:pagecheckerboard="1"
   inkscape:deskcolor="#505050"
   showgrid="false"
   inkscape:zoom="1.0951869"
   inkscape:cx="215.0318"
   inkscape:cy="195.85699"
   inkscape:window-width="1920"
   inkscape:window-height="996"
   inkscape:window-x="-8"
   inkscape:window-y="-8"
   inkscape:window-maximized="1"
   inkscape:current-layer="Layer_1" />
<style
   type="text/css"
   id="style2">
	.st0{fill:#333333;}
</style>

<path
   id="rect362"
   style="fill:#ffffff;fill-opacity:0.701961;stroke:none;stroke-width:11.7252;stroke-linecap:round;stroke-linejoin:round;paint-order:markers fill stroke"
   d="M 250.36914 137.52344 C 235.24457 137.52344 223.06836 149.69965 223.06836 164.82422 L 223.06836 223.06836 L 164.82422 223.06836 C 149.69965 223.06836 137.52344 235.24457 137.52344 250.36914 L 137.52344 261.63086 C 137.52344 276.75543 149.69965 288.93164 164.82422 288.93164 L 223.06836 288.93164 L 223.06836 347.17578 C 223.06836 362.30035 235.24457 374.47656 250.36914 374.47656 L 261.63086 374.47656 C 276.75543 374.47656 288.93164 362.30035 288.93164 347.17578 L 288.93164 288.93164 L 347.17578 288.93164 C 362.30035 288.93164 374.47656 276.75543 374.47656 261.63086 L 374.47656 250.36914 C 374.47656 235.24457 362.30035 223.06836 347.17578 223.06836 L 288.93164 223.06836 L 288.93164 164.82422 C 288.93164 149.69965 276.75543 137.52344 261.63086 137.52344 L 250.36914 137.52344 z " /></svg>
