<?xml version="1.0" encoding="UTF-8" standalone="no"?>
<!-- Generator: Adobe Illustrator 24.1.1, SVG Export Plug-In . SVG Version: 6.00 Build 0)  -->

<svg
   version="1.1"
   id="Layer_1"
   x="0px"
   y="0px"
   viewBox="0 0 512 512"
   style="enable-background:new 0 0 512 512;"
   xml:space="preserve"
   sodipodi:docname="joypos.svg"
   inkscape:version="1.2 (dc2aedaf03, 2022-05-15)"
   xmlns:inkscape="http://www.inkscape.org/namespaces/inkscape"
   xmlns:sodipodi="http://sodipodi.sourceforge.net/DTD/sodipodi-0.dtd"
   xmlns="http://www.w3.org/2000/svg"
   xmlns:svg="http://www.w3.org/2000/svg"><defs
   id="defs9"><rect
   x="86.51702"
   y="111.0517"
   width="302.16392"
   height="289.25093"
   id="rect907" />
	
</defs><sodipodi:namedview
   id="namedview7"
   pagecolor="#505050"
   bordercolor="#ffffff"
   borderopacity="1"
   inkscape:showpageshadow="0"
   inkscape:pageopacity="0"
   inkscape:pagecheckerboard="1"
   inkscape:deskcolor="#505050"
   showgrid="false"
   inkscape:zoom="0.7744141"
   inkscape:cx="30.345522"
   inkscape:cy="189.17527"
   inkscape:window-width="1920"
   inkscape:window-height="996"
   inkscape:window-x="-8"
   inkscape:window-y="-8"
   inkscape:window-maximized="1"
   inkscape:current-layer="g977" />
<style
   type="text/css"
   id="style2">
	.st0{fill:#333333;}
</style>

<g
   id="g967"><rect
     style="fill:#c6c6c6;stroke:#c6c6c6;stroke-width:6.02611;stroke-linecap:round;stroke-linejoin:round;paint-order:markers fill stroke"
     id="rect900"
     width="167.61449"
     height="21.69772"
     x="3.0130551"
     y="3.0130551"
     ry="0" /><rect
     style="fill:#c6c6c6;stroke:#c6c6c6;stroke-width:6.02611;stroke-linecap:round;stroke-linejoin:round;paint-order:markers fill stroke"
     id="rect900-2"
     width="167.61449"
     height="21.69772"
     x="341.37247"
     y="3.0130551"
     ry="0" /><rect
     style="fill:#c6c6c6;stroke:#c6c6c6;stroke-width:6.02611;stroke-linecap:round;stroke-linejoin:round;paint-order:markers fill stroke"
     id="rect900-4"
     width="167.61449"
     height="21.69772"
     x="3.0130551"
     y="487.28922"
     ry="0" /><rect
     style="fill:#c6c6c6;stroke:#c6c6c6;stroke-width:6.02611;stroke-linecap:round;stroke-linejoin:round;paint-order:markers fill stroke"
     id="rect900-2-7"
     width="167.61449"
     height="21.69772"
     x="341.37247"
     y="487.28922"
     ry="0" /></g><g
   id="g977"
   transform="rotate(90,256,255.99999)"><rect
     style="fill:#c6c6c6;stroke:#c6c6c6;stroke-width:6.02611;stroke-linecap:round;stroke-linejoin:round;paint-order:markers fill stroke"
     id="rect969"
     width="167.61449"
     height="21.69772"
     x="3.0130551"
     y="3.0130551"
     ry="0" /><rect
     style="fill:#c6c6c6;stroke:#c6c6c6;stroke-width:6.02611;stroke-linecap:round;stroke-linejoin:round;paint-order:markers fill stroke"
     id="rect971"
     width="167.61449"
     height="21.69772"
     x="341.37247"
     y="3.0130551"
     ry="0" /><rect
     style="fill:#c6c6c6;stroke:#c6c6c6;stroke-width:6.02611;stroke-linecap:round;stroke-linejoin:round;paint-order:markers fill stroke"
     id="rect973"
     width="167.61449"
     height="21.69772"
     x="3.0130551"
     y="487.28922"
     ry="0" /><rect
     style="fill:#c6c6c6;stroke:#c6c6c6;stroke-width:6.02611;stroke-linecap:round;stroke-linejoin:round;paint-order:markers fill stroke"
     id="rect975"
     width="167.61449"
     height="21.69772"
     x="341.37247"
     y="487.28922"
     ry="0" /><g
     aria-label="DRAG
ME"
     transform="matrix(0,-1.5692099,1.5692099,0,-76.980955,629.82441)"
     id="text905"
     style="font-weight:bold;font-size:85.3333px;line-height:1.25;font-family:Bahnschrift;-inkscape-font-specification:'Bahnschrift Bold';text-align:center;letter-spacing:0px;word-spacing:0px;text-anchor:middle;white-space:pre;shape-inside:url(#rect907);fill:#fefefe"><path
       d="m 142.12048,178.46742 h 14.54166 q 5.625,0 8.70833,-2.70833 3.08333,-2.70833 3.08333,-7.66667 V 150.2591 q 0,-4.95833 -3.08333,-7.66667 -3.08333,-2.70833 -8.70833,-2.70833 h -14.54166 v -10.99999 h 14.29166 q 7.58333,0 12.91666,2.54166 5.375,2.54167 8.16667,7.41667 2.79166,4.87499 2.79166,11.74999 v 17.16666 q 0,6.54166 -2.70833,11.41666 -2.66666,4.875 -8.04166,7.58333 -5.375,2.70834 -13.16666,2.70834 h -14.25 z m -5.75,-49.58331 h 11.41667 v 60.58331 h -11.41667 z"
       id="path952" /><path
       d="m 196.07879,154.09243 h 21.08333 q 1.75,0 3.08333,-0.875 1.33333,-0.875 2.04167,-2.5 0.75,-1.625 0.79166,-3.75 v 0 q 0,-2.125 -0.75,-3.75 -0.70833,-1.62499 -2.04166,-2.49999 -1.33333,-0.875 -3.125,-0.875 h -21.08333 v -11 h 22 q 4.99999,0 8.79166,2.25 3.79166,2.25 5.875,6.375 2.08333,4.08333 2.08333,9.49999 v 0 q 0,5.41667 -2.08333,9.54167 -2.08334,4.08333 -5.91667,6.33333 -3.79166,2.25 -8.74999,2.25 h -22 z m -4.54166,-25.24999 h 11.41666 v 60.62498 h -11.41666 z m 17.29166,34.37499 12.20833,-1.91667 16.33332,28.16666 h -13.83332 z"
       id="path949" /><path
       d="m 262.4121,128.88411 h 7.25 l 23.16666,60.58331 h -12.29167 l -14.49999,-41.37499 -14.49999,41.37499 h -12.29167 z m -12.04166,39.87498 h 31.87499 v 11 h -31.87499 z"
       id="path946" /><path
       d="m 340.07874,155.59243 v 11.83333 q 0,6.74999 -2.75,11.91666 -2.70833,5.125 -7.70833,7.95833 -5,2.79166 -11.58333,2.79166 -6.625,0 -11.70833,-2.62499 -5.04166,-2.66667 -7.83333,-7.5 -2.75,-4.83333 -2.75,-11.20833 V 150.8841 q 0,-6.75 2.70834,-11.875 2.75,-5.12499 7.74999,-7.91666 5,-2.83333 11.58333,-2.83333 5.41667,0 10,2.25 4.58333,2.20833 7.62499,6.29166 3.08334,4.08333 4.16667,9.45833 v 0 h -12.33333 v 0 q -0.625,-1.91667 -2.08333,-3.29167 -1.41667,-1.41666 -3.375,-2.12499 -1.91667,-0.75 -4,-0.75 -3.04166,0 -5.375,1.33333 -2.29166,1.33333 -3.58333,3.79166 -1.25,2.45834 -1.25,5.66667 v 17.87499 q 0,2.83333 1.29167,5 1.29167,2.16666 3.66666,3.33333 2.375,1.16667 5.5,1.16667 3.08333,0 5.375,-1.25 2.33333,-1.29167 3.58333,-3.70833 1.25,-2.41667 1.25,-5.70834 v -1 h -9.16666 v -10.99999 z"
       id="path943" /><path
       d="m 223.64128,235.55073 h 15.04166 v 60.58331 h -10.37499 v -47.04165 l 0.41666,2.66667 -11.58333,37.62498 h -10.08332 l -11.58333,-36.79165 0.41666,-3.5 v 47.04165 H 185.5163 v -60.58331 h 15.04166 l 11.54166,40.83332 z"
       id="path940" /><path
       d="m 252.01627,235.55073 h 11.41666 v 60.58331 h -11.41666 z m 4.125,49.58332 h 36.45831 v 10.99999 h -36.45831 z m 0,-24.58333 h 31.87498 v 11 h -31.87498 z m 0,-24.99999 h 36.45831 v 11 h -36.45831 z"
       id="path937" /></g></g></svg>
