<?xml version="1.0" encoding="UTF-8" standalone="no"?>
<!-- Generator: Adobe Illustrator 24.1.1, SVG Export Plug-In . SVG Version: 6.00 Build 0)  -->

<svg
   version="1.1"
   id="Layer_1"
   x="0px"
   y="0px"
   viewBox="0 0 512 512"
   style="enable-background:new 0 0 512 512;"
   xml:space="preserve"
   sodipodi:docname="posearray.svg"
   inkscape:version="1.3.2 (1:1.3.2+202311252150+091e20ef0f)"
   xmlns:inkscape="http://www.inkscape.org/namespaces/inkscape"
   xmlns:sodipodi="http://sodipodi.sourceforge.net/DTD/sodipodi-0.dtd"
   xmlns="http://www.w3.org/2000/svg"
   xmlns:svg="http://www.w3.org/2000/svg"><defs
   id="defs9">
	
</defs><sodipodi:namedview
   id="namedview7"
   pagecolor="#505050"
   bordercolor="#ffffff"
   borderopacity="1"
   inkscape:showpageshadow="0"
   inkscape:pageopacity="0"
   inkscape:pagecheckerboard="1"
   inkscape:deskcolor="#505050"
   showgrid="false"
   inkscape:zoom="0.54759345"
   inkscape:cx="203.61821"
   inkscape:cy="78.52541"
   inkscape:window-width="1920"
   inkscape:window-height="1107"
   inkscape:window-x="0"
   inkscape:window-y="223"
   inkscape:window-maximized="1"
   inkscape:current-layer="Layer_1" />
<style
   type="text/css"
   id="svgInternalID">
	.st0{fill:#333333;}
</style>

<path
   d="m 360.74644,218.67844 -110.40903,146.32115 30.52007,23.68107 -99.33645,40.3826 13.73993,-106.79847 30.52007,23.68107 110.40903,-146.32115 12.27821,9.52687 z"
   fill="#112244"
   id="fillColor"
   style="fill:#f74127;fill-opacity:1;stroke:none;stroke-width:0.444021"
   sodipodi:nodetypes="ccccccccc" /><path
   d="m 299.26192,101.85638 -157.5103,93.75792 19.31008,33.45726 -107.230899,-0.14395 53.073919,-93.69023 19.31007,33.45728 157.51027,-93.757918 7.76844,13.459833 z"
   fill="#112244"
   id="fillColor"
   style="fill:#f74127;fill-opacity:1;stroke:none;stroke-width:0.444021"
   sodipodi:nodetypes="ccccccccc" /><path
   d="m 366.40194,117.06838 -131.42638,127.77771 26.55289,28.0573 -104.3319,24.76574 29.86175,-103.45518 26.55288,28.0573 131.42636,-127.777706 10.68221,11.287426 z"
   fill="#112244"
   id="fillColor"
   style="fill:#f74127;fill-opacity:1;stroke:none;stroke-width:0.444021"
   sodipodi:nodetypes="ccccccccc" /><path
   d="m 468.1692,178.93622 -89.3114,160.07346 33.47789,19.27432 -92.86386,53.61707 -1.02814,-107.67378 33.47789,19.27432 89.31139,-160.07345 13.46813,7.75405 z"
   fill="#112244"
   id="fillColor"
   style="fill:#f74127;fill-opacity:1;stroke:none;stroke-width:0.444021"
   sodipodi:nodetypes="ccccccccc" /></svg>
