<?xml version="1.0" encoding="UTF-8" standalone="no"?>
<!-- Generator: Adobe Illustrator 24.1.1, SVG Export Plug-In . SVG Version: 6.00 Build 0)  -->

<svg
   version="1.1"
   id="Layer_1"
   x="0px"
   y="0px"
   viewBox="0 0 512 512"
   style="enable-background:new 0 0 512 512;"
   xml:space="preserve"
   sodipodi:docname="satelite.svg"
   inkscape:version="1.2 (dc2aedaf03, 2022-05-15)"
   xmlns:inkscape="http://www.inkscape.org/namespaces/inkscape"
   xmlns:sodipodi="http://sodipodi.sourceforge.net/DTD/sodipodi-0.dtd"
   xmlns="http://www.w3.org/2000/svg"
   xmlns:svg="http://www.w3.org/2000/svg"><defs
   id="defs9">
	
</defs><sodipodi:namedview
   id="namedview7"
   pagecolor="#505050"
   bordercolor="#ffffff"
   borderopacity="1"
   inkscape:showpageshadow="0"
   inkscape:pageopacity="0"
   inkscape:pagecheckerboard="1"
   inkscape:deskcolor="#505050"
   showgrid="false"
   inkscape:zoom="0.38720704"
   inkscape:cx="-680.51449"
   inkscape:cy="156.24716"
   inkscape:window-width="1920"
   inkscape:window-height="996"
   inkscape:window-x="-8"
   inkscape:window-y="-8"
   inkscape:window-maximized="1"
   inkscape:current-layer="Layer_1" />
<style
   type="text/css"
   id="style2">
	.st0{fill:#333333;}
</style>

<path
   id="path1634"
   style="fill:#66ce4f;fill-opacity:1;stroke:none;stroke-width:0.605514px;stroke-linecap:butt;stroke-linejoin:miter;stroke-opacity:1"
   d="M 102.44531 231 L 97.501953 256.99805 C 137.36938 269.90975 170.22553 279.77405 199.43945 288.05664 C 195.39878 283.6422 191.45672 279.13256 187.70508 274.45312 C 176.70096 261.07991 167.41643 246.47569 159.95703 231 L 102.44531 231 z M 353.70312 231 C 339.90547 262.27549 319.32918 290.14587 293.48242 312.63086 C 314.18914 317.6137 334.08425 322.24432 354.74023 327.20508 L 413.79883 253.32422 L 409.55469 231 L 353.70312 231 z " /><path
   id="path1636"
   style="fill:#d3b852;fill-opacity:1;stroke:none;stroke-width:0.605514px;stroke-linecap:butt;stroke-linejoin:miter;stroke-opacity:1"
   d="M 91.504438,286.76014 63.990255,433.29668 h 50.774405 l 2.42205,-139.52938 z" /><path
   id="path1638"
   style="fill:#71b0ce;fill-opacity:1;stroke:none;stroke-width:0.605514px;stroke-linecap:butt;stroke-linejoin:miter;stroke-opacity:1"
   d="m 147.72373,302.10138 -2.42206,131.19294 H 269.9262 l 63.92541,-82.37582 z" /><path
   id="path1640"
   style="fill:#997234;fill-opacity:1;stroke:none;stroke-width:0.605514px;stroke-linecap:butt;stroke-linejoin:miter;stroke-opacity:1"
   d="M 419.32829,288.20769 304.30446,433.29432 h 143.70529 z" /><path
   d="m 262.05431,293.58583 c -1.85846,1.39553 -4.39205,1.47725 -6.33657,0.20438 -51.1784,-33.66511 -80.95438,-78.75108 -91.98265,-136.87793 -4.39474,-27.22005 -0.20439,-53.38398 13.42266,-74.676263 5.50168,-8.649139 12.41038,-16.317821 20.44056,-22.689042 17.57107,-14.670393 39.65985,-22.839391 62.54821,-23.131935 22.16402,0.357582 43.38839,9.01265 59.4821,24.256171 6.18109,5.66618 11.52628,12.181342 15.87552,19.350414 14.54689,23.847335 17.68111,54.508225 11.2764,85.577935 -10.84147,49.81291 -41.41085,101.10421 -84.72623,127.98625 z M 256.02434,84.825189 c 41.6445,0 62.4926,50.346331 33.04907,79.789861 -29.44357,29.44356 -79.7899,8.59546 -79.7899,-33.04907 0,-25.81421 20.9266,-46.740791 46.74083,-46.740791 z"
   style="fill:#ff5b5b;fill-opacity:1;fill-rule:evenodd;stroke-width:3.40675"
   id="path1043-4"
   sodipodi:nodetypes="sccccccccssssss" /></svg>
