<?xml version="1.0" encoding="UTF-8" standalone="no"?>
<!-- Generator: Adobe Illustrator 24.1.1, SVG Export Plug-In . SVG Version: 6.00 Build 0)  -->

<svg
   version="1.1"
   id="Layer_1"
   x="0px"
   y="0px"
   viewBox="0 0 512 512"
   style="enable-background:new 0 0 512 512;"
   xml:space="preserve"
   sodipodi:docname="temp_nominal.svg"
   inkscape:version="1.2 (dc2aedaf03, 2022-05-15)"
   xmlns:inkscape="http://www.inkscape.org/namespaces/inkscape"
   xmlns:sodipodi="http://sodipodi.sourceforge.net/DTD/sodipodi-0.dtd"
   xmlns="http://www.w3.org/2000/svg"
   xmlns:svg="http://www.w3.org/2000/svg"><defs
   id="defs9">
	
</defs><sodipodi:namedview
   id="namedview7"
   pagecolor="#505050"
   bordercolor="#ffffff"
   borderopacity="1"
   inkscape:showpageshadow="0"
   inkscape:pageopacity="0"
   inkscape:pagecheckerboard="1"
   inkscape:deskcolor="#505050"
   showgrid="false"
   inkscape:zoom="1.0951869"
   inkscape:cx="155.22465"
   inkscape:cy="245.16363"
   inkscape:window-width="1920"
   inkscape:window-height="996"
   inkscape:window-x="-8"
   inkscape:window-y="-8"
   inkscape:window-maximized="1"
   inkscape:current-layer="Layer_1" />
<style
   type="text/css"
   id="style2">
	.st0{fill:#333333;}
</style>

<rect
   style="fill:#f98f2c;fill-opacity:1;stroke:none;stroke-width:30.6314;stroke-linecap:round;stroke-linejoin:round;stroke-miterlimit:4;stroke-dasharray:none;stroke-opacity:1"
   id="rect823-5-1"
   width="60.979801"
   height="131.04147"
   x="228.82657"
   y="206.04797" /><circle
   style="opacity:0.99;fill:#f98f2c;fill-opacity:1;stroke-width:1.40159;stroke-linecap:round;stroke-linejoin:round;paint-order:markers fill stroke"
   id="path358"
   cx="259.31647"
   cy="344.13046"
   r="67.067802" /><g
   id="g1305"
   transform="matrix(1.5723786,0,0,1.5723786,64.713855,17.468956)"><path
     d="m 121.65401,266.75791 q -23.9702,0 -41.06901,-17.09876 -17.098765,-17.09875 -17.098765,-41.06901 0,-15.34091 7.670515,-29.08386 7.67046,-13.74294 21.09378,-22.05265 V 66.047124 q 0,-12.144919 8.62928,-20.774204 8.62929,-8.629285 20.7742,-8.629285 12.14491,0 20.7742,8.629285 8.62928,8.629285 8.62928,20.774204 v 91.406506 q 13.42338,8.30971 21.09383,22.05265 7.67046,13.74295 7.67046,29.08386 0,23.97026 -17.09876,41.06901 -17.09875,17.09876 -41.06901,17.09876 z m 0,-18.85654 q 15.34097,0 27.16631,-11.98516 11.82529,-11.9851 11.82529,-27.32607 0,-11.18609 -6.07243,-22.21241 -6.07248,-11.02627 -16.2998,-15.50073 l -6.39206,-2.87643 V 66.047124 q 0,-4.474404 -2.87642,-7.350833 -2.87643,-2.876428 -7.35089,-2.876428 -4.4744,0 -7.35083,2.876428 -2.87643,2.876429 -2.87643,7.350833 V 168.00057 l -6.39211,2.87643 q -10.22726,4.47446 -16.29974,15.50073 -6.07243,11.02632 -6.07243,22.21241 0,15.34097 11.82528,27.32607 11.82535,11.98516 27.16626,11.98516 z"
     id="path254"
     style="fill:#ffffff;stroke-width:6.39206" /><rect
     style="opacity:0.99;fill:#ffffff;fill-opacity:1;stroke-width:0.513014;stroke-linecap:round;stroke-linejoin:round;paint-order:markers fill stroke"
     id="rect1228"
     width="21.637882"
     height="10.58875"
     x="121.54044"
     y="83.328865" /><rect
     style="opacity:0.99;fill:#ffffff;fill-opacity:1;stroke-width:0.513014;stroke-linecap:round;stroke-linejoin:round;paint-order:markers fill stroke"
     id="rect1228-0"
     width="21.637882"
     height="10.58875"
     x="121.17541"
     y="115.78568" /><rect
     style="opacity:0.99;fill:#ffffff;fill-opacity:1;stroke-width:0.513014;stroke-linecap:round;stroke-linejoin:round;paint-order:markers fill stroke"
     id="rect1228-0-3"
     width="21.637882"
     height="10.58875"
     x="120.84149"
     y="148.31113" /></g></svg>
