<?xml version="1.0" encoding="UTF-8" standalone="no"?>
<!-- Generator: Adobe Illustrator 24.1.1, SVG Export Plug-In . SVG Version: 6.00 Build 0)  -->

<svg
   version="1.1"
   id="Layer_1"
   x="0px"
   y="0px"
   viewBox="0 0 512 512"
   style="enable-background:new 0 0 512 512;"
   xml:space="preserve"
   sodipodi:docname="add.svg"
   inkscape:version="1.2 (dc2aedaf03, 2022-05-15)"
   xmlns:inkscape="http://www.inkscape.org/namespaces/inkscape"
   xmlns:sodipodi="http://sodipodi.sourceforge.net/DTD/sodipodi-0.dtd"
   xmlns="http://www.w3.org/2000/svg"
   xmlns:svg="http://www.w3.org/2000/svg"><defs
   id="defs9">
	
</defs><sodipodi:namedview
   id="namedview7"
   pagecolor="#505050"
   bordercolor="#ffffff"
   borderopacity="1"
   inkscape:showpageshadow="0"
   inkscape:pageopacity="0"
   inkscape:pagecheckerboard="1"
   inkscape:deskcolor="#505050"
   showgrid="false"
   inkscape:zoom="0.77441406"
   inkscape:cx="-36.156368"
   inkscape:cy="153.01892"
   inkscape:window-width="1920"
   inkscape:window-height="996"
   inkscape:window-x="-8"
   inkscape:window-y="-8"
   inkscape:window-maximized="1"
   inkscape:current-layer="Layer_1" />
<style
   type="text/css"
   id="style2">
	.st0{fill:#333333;}
</style>

<path
   d="m 373.08166,272.72595 v -33.4519 c 0,-4.37688 -1.48501,-8.75377 -5.08031,-11.64564 -3.5953,-2.89187 -7.26876,-5.08032 -11.64564,-5.08032 h -66.9038 v -66.9038 c 0,-4.37688 -1.48501,-8.75377 -5.08031,-11.64564 -3.67347,-3.67345 -7.26876,-5.08031 -11.64565,-5.08031 h -33.4519 c -4.37688,0 -8.75377,1.48501 -11.64564,5.08031 -2.89186,3.67346 -5.08031,7.26876 -5.08031,11.64564 v 66.9038 h -66.90381 c -4.37688,0 -8.75377,1.48503 -11.64564,5.08032 -2.89187,3.67346 -5.08031,7.26876 -5.08031,11.64564 v 33.4519 c 0,4.37689 1.48501,8.75377 5.08031,11.64564 3.67346,3.67346 7.26876,5.08032 11.64564,5.08032 h 66.90381 v 66.9038 c 0,4.37688 1.48502,8.75377 5.08031,11.64564 3.67346,2.89187 7.26876,5.08031 11.64564,5.08031 h 33.4519 c 4.37689,0 8.75378,-1.48501 11.64565,-5.08031 3.67345,-3.67346 5.08031,-7.26876 5.08031,-11.64564 v -66.9038 h 66.9038 c 4.37688,0 8.75377,-1.48502 11.64564,-5.08032 3.67346,-3.59529 5.08031,-7.26875 5.08031,-11.64564 z"
   style="fill:#ffffff;fill-opacity:0.70075762;stroke-width:0.781586"
   id="path1678" /></svg>
