<?xml version="1.0" encoding="UTF-8" standalone="no"?>
<!-- Generator: Adobe Illustrator 24.1.1, SVG Export Plug-In . SVG Version: 6.00 Build 0)  -->

<svg
   version="1.1"
   id="Layer_1"
   x="0px"
   y="0px"
   viewBox="0 0 512 512"
   style="enable-background:new 0 0 512 512;"
   xml:space="preserve"
   sodipodi:docname="grid.svg"
   inkscape:version="1.2 (dc2aedaf03, 2022-05-15)"
   xmlns:inkscape="http://www.inkscape.org/namespaces/inkscape"
   xmlns:sodipodi="http://sodipodi.sourceforge.net/DTD/sodipodi-0.dtd"
   xmlns="http://www.w3.org/2000/svg"
   xmlns:svg="http://www.w3.org/2000/svg"><defs
   id="defs9">
	
</defs><sodipodi:namedview
   id="namedview7"
   pagecolor="#505050"
   bordercolor="#ffffff"
   borderopacity="1"
   inkscape:showpageshadow="0"
   inkscape:pageopacity="0"
   inkscape:pagecheckerboard="1"
   inkscape:deskcolor="#505050"
   showgrid="false"
   inkscape:zoom="0.54759346"
   inkscape:cx="-95.874045"
   inkscape:cy="94.047872"
   inkscape:window-width="1920"
   inkscape:window-height="996"
   inkscape:window-x="-8"
   inkscape:window-y="-8"
   inkscape:window-maximized="1"
   inkscape:current-layer="g2985" />
<style
   type="text/css"
   id="style2">
	.st0{fill:#333333;}
</style>

<g
   id="g2987"
   style="fill:#ffffff;fill-opacity:1;stroke:#ffffff;stroke-width:0;stroke-dasharray:none;stroke-opacity:1"
   transform="matrix(0.75386481,0,0,0.75386481,82.610341,82.610341)">
	<g
   id="g2985"
   style="fill:#ffffff;fill-opacity:1;stroke:#ffffff;stroke-width:0;stroke-dasharray:none;stroke-opacity:1">
		<path
   d="M 427.137,0 H 32.865 C 14.743,0 0,14.743 0,32.865 v 394.272 c 0,18.122 14.743,32.865 32.865,32.865 h 394.272 c 18.122,0 32.865,-14.743 32.865,-32.865 V 32.865 C 460.002,14.743 445.259,0 427.137,0 Z M 137.305,399.443 c 0,8.284 -6.716,15 -15,15 H 56.251 c -8.284,0 -15,-6.716 -15,-15 v -66.054 c 0,-8.284 6.716,-15 15,-15 h 66.054 c 8.284,0 15,6.716 15,15 z m 0,-136.415 c 0,8.284 -6.716,15 -15,15 H 56.251 c -8.284,0 -15,-6.716 -15,-15 v -66.054 c 0,-8.284 6.716,-15 15,-15 h 66.054 c 8.284,0 15,6.716 15,15 z m 0,-136.415 c 0,8.284 -6.716,15 -15,15 H 56.251 c -8.284,-0.001 -15,-6.717 -15,-15.001 V 60.559 c 0,-8.284 6.716,-15 15,-15 h 66.054 c 8.284,0 15,6.716 15,15 z m 139.766,272.83 c 0,8.284 -6.716,15 -15,15 h -66.054 c -8.284,0 -15,-6.716 -15,-15 v -66.054 c 0,-8.284 6.715,-15 15,-15 h 66.054 c 8.284,0 15,6.716 15,15 z m 0,-136.415 c 0,8.284 -6.716,15 -15,15 h -66.054 c -8.284,0 -15,-6.716 -15,-15 v -66.054 c 0,-8.284 6.715,-15 15,-15 h 66.054 c 8.284,0 15,6.716 15,15 z m 0,-136.415 c 0,8.284 -6.716,15 -15,15 h -66.054 c -8.285,-0.001 -15,-6.717 -15,-15.001 V 60.559 c 0,-8.284 6.716,-15 15,-15 h 66.054 c 8.284,0 15,6.716 15,15 z m 141.68,272.83 c 0,8.284 -6.716,15 -15,15 h -66.054 c -8.284,0 -15,-6.716 -15,-15 v -66.054 c 0,-8.284 6.716,-15 15,-15 h 66.054 c 8.284,0 15,6.716 15,15 z m 0,-136.415 c 0,8.284 -6.716,15 -15,15 h -66.054 c -8.284,0 -15,-6.716 -15,-15 v -66.054 c 0,-8.284 6.716,-15 15,-15 h 66.054 c 8.284,0 15,6.716 15,15 z m 0,-136.416 c 0,8.284 -6.716,15 -15,15 h -66.054 c -8.284,0 -15,-6.716 -15,-15 V 60.559 c 0,-8.284 6.716,-15 15,-15 h 66.054 c 8.284,0 15,6.716 15,15 z"
   id="path2983"
   style="fill:#ffffff;fill-opacity:1;stroke:#dcdcdc;stroke-width:0;stroke-dasharray:none;stroke-opacity:1" />
	</g>
</g></svg>
