<?xml version="1.0" encoding="UTF-8" standalone="no"?>
<!-- Generator: Adobe Illustrator 24.1.1, SVG Export Plug-In . SVG Version: 6.00 Build 0)  -->

<svg
   version="1.1"
   id="Layer_1"
   x="0px"
   y="0px"
   viewBox="0 0 512 512"
   style="enable-background:new 0 0 512 512;"
   xml:space="preserve"
   sodipodi:docname="joystick.svg"
   inkscape:version="1.2 (dc2aedaf03, 2022-05-15)"
   xmlns:inkscape="http://www.inkscape.org/namespaces/inkscape"
   xmlns:sodipodi="http://sodipodi.sourceforge.net/DTD/sodipodi-0.dtd"
   xmlns="http://www.w3.org/2000/svg"
   xmlns:svg="http://www.w3.org/2000/svg"><defs
   id="defs9">
	

	
	
	
</defs><sodipodi:namedview
   id="namedview7"
   pagecolor="#505050"
   bordercolor="#ffffff"
   borderopacity="1"
   inkscape:showpageshadow="0"
   inkscape:pageopacity="0"
   inkscape:pagecheckerboard="1"
   inkscape:deskcolor="#505050"
   showgrid="false"
   inkscape:zoom="1.5488282"
   inkscape:cx="237.9218"
   inkscape:cy="196.60024"
   inkscape:window-width="1920"
   inkscape:window-height="996"
   inkscape:window-x="-8"
   inkscape:window-y="-8"
   inkscape:window-maximized="1"
   inkscape:current-layer="Layer_1" />
<style
   type="text/css"
   id="style2">
	.st0{fill:#333333;}
</style>

<path
   d="M 234.6024,439.59178 77.758471,361.15785 A 23.934675,23.934675 0 0 1 64.522597,339.76025 V 294.02108 A 23.934675,23.934675 0 0 1 79.02701,272.71922 l 129.10364,-55.33698 v 26.04094 L 88.457267,294.71519 223.87967,362.45032 a 71.804027,71.804027 0 0 0 64.24066,0 L 423.54274,294.71519 303.86935,243.42318 v -26.017 l 129.10364,55.33698 a 23.934675,23.934675 0 0 1 14.50441,21.30186 v 45.73917 a 23.934675,23.934675 0 0 1 -13.23587,21.39759 L 277.3976,439.61571 a 47.869352,47.869352 0 0 1 -42.7952,0 z"
   id="path1208"
   style="fill:#ffffff;fill-opacity:1;stroke-width:23.9346" /><path
   fill-rule="evenodd"
   d="M 238.40108,294.71519 V 151.10713 h 35.19784 v 143.60806 z"
   id="path1210"
   style="fill:#ffffff;fill-opacity:1;stroke-width:29.0251" /><path
   d="m 303.86935,115.20512 c 0,63.82588 -95.7387,63.82588 -95.7387,0 0,-63.825891 95.7387,-63.825891 95.7387,0 z"
   id="path1212"
   style="fill:#ffffff;fill-opacity:1;stroke-width:23.9346"
   sodipodi:nodetypes="sss" /><path
   d="m 314.48845,289.78751 c 0,12.10712 -26.17352,21.93326 -58.48845,21.93326 -32.31493,0 -58.48845,-9.82614 -58.48845,-21.93326 0,-12.10711 26.17352,-21.93325 58.48845,-21.93325 32.31493,0 58.48845,9.82614 58.48845,21.93325 z"
   style="fill:#ffffff;fill-opacity:1;stroke-width:29.2443"
   id="path1755" /></svg>
