<?xml version="1.0" encoding="UTF-8" standalone="no"?>
<!-- Generator: Adobe Illustrator 24.1.1, SVG Export Plug-In . SVG Version: 6.00 Build 0)  -->

<svg
   version="1.1"
   id="Layer_1"
   x="0px"
   y="0px"
   viewBox="0 0 512 512"
   style="enable-background:new 0 0 512 512;"
   xml:space="preserve"
   sodipodi:docname="marker.svg"
   inkscape:version="1.2 (dc2aedaf03, 2022-05-15)"
   xmlns:inkscape="http://www.inkscape.org/namespaces/inkscape"
   xmlns:sodipodi="http://sodipodi.sourceforge.net/DTD/sodipodi-0.dtd"
   xmlns="http://www.w3.org/2000/svg"
   xmlns:svg="http://www.w3.org/2000/svg"><defs
   id="defs9">
	
</defs><sodipodi:namedview
   id="namedview7"
   pagecolor="#505050"
   bordercolor="#ffffff"
   borderopacity="1"
   inkscape:showpageshadow="0"
   inkscape:pageopacity="0"
   inkscape:pagecheckerboard="1"
   inkscape:deskcolor="#505050"
   showgrid="false"
   inkscape:zoom="1.0951869"
   inkscape:cx="98.15676"
   inkscape:cy="201.33549"
   inkscape:window-width="1920"
   inkscape:window-height="996"
   inkscape:window-x="-8"
   inkscape:window-y="-8"
   inkscape:window-maximized="1"
   inkscape:current-layer="Layer_1" />
<style
   type="text/css"
   id="style2">
	.st0{fill:#333333;}
</style>

<path
   style="fill:#5eb763;fill-opacity:1;stroke:none;stroke-width:1px;stroke-linecap:butt;stroke-linejoin:miter;stroke-opacity:1"
   d="M 254.17383,77.035119 96.209924,148.25584 94.383752,350.96096 249.6084,434.96488 417.61625,350.04787 v -197.2266 z"
   id="path2201" /><g
   id="g6"
   transform="matrix(0.4180077,0,0,0.4180077,57.792035,57.792035)"
   style="fill:#ffffff;fill-opacity:1">
	<g
   id="g4"
   style="fill:#ffffff;fill-opacity:1">
		<path
   d="m 457.701,939.221 c 0,0 10e-4,0 10e-4,0.002 l 16.472,9.123 16.472,-9.123 c 0,0 0,0 0,-0.002 L 737.597,802.45 895.767,714.848 v -20.037 -480.02 -21.83 l -19.85,-9.085 -47.105,-21.56 L 474.173,0 119.534,162.316 l -47.105,21.56 -19.85,9.085 v 21.83 480.02 20.037 L 210.75,802.45 Z M 586.337,328.471 474.173,390.592 362.01,328.471 161.968,217.678 474.173,74.784 786.378,217.678 Z m -78.164,523.31 V 449.494 L 827.767,272.489 v 402.287 z m -68,-402.287 V 851.782 L 120.58,674.775 V 272.488 Z"
   id="path2"
   style="fill:#ffffff;fill-opacity:1" />
	</g>
</g></svg>
