<?xml version="1.0" encoding="UTF-8" standalone="no"?>
<!-- Generator: Adobe Illustrator 24.1.1, SVG Export Plug-In . SVG Version: 6.00 Build 0)  -->

<svg
   version="1.1"
   id="Layer_1"
   x="0px"
   y="0px"
   viewBox="0 0 512 512"
   style="enable-background:new 0 0 512 512;"
   xml:space="preserve"
   sodipodi:docname="sonar.svg"
   inkscape:version="1.2 (dc2aedaf03, 2022-05-15)"
   xmlns:inkscape="http://www.inkscape.org/namespaces/inkscape"
   xmlns:sodipodi="http://sodipodi.sourceforge.net/DTD/sodipodi-0.dtd"
   xmlns="http://www.w3.org/2000/svg"
   xmlns:svg="http://www.w3.org/2000/svg"><defs
   id="defs9">
	
</defs><sodipodi:namedview
   id="namedview7"
   pagecolor="#505050"
   bordercolor="#ffffff"
   borderopacity="1"
   inkscape:showpageshadow="0"
   inkscape:pageopacity="0"
   inkscape:pagecheckerboard="1"
   inkscape:deskcolor="#505050"
   showgrid="false"
   inkscape:zoom="0.77441408"
   inkscape:cx="186.59268"
   inkscape:cy="159.47541"
   inkscape:window-width="1920"
   inkscape:window-height="996"
   inkscape:window-x="-8"
   inkscape:window-y="-8"
   inkscape:window-maximized="1"
   inkscape:current-layer="Layer_1" />
<style
   type="text/css"
   id="style2">
	.st0{fill:#333333;}
</style>

<path
   style="fill:#5a7289;fill-opacity:1;stroke:none;stroke-width:1px;stroke-linecap:butt;stroke-linejoin:miter;stroke-opacity:1"
   d="M 408.05043,439.68727 82.643127,258.90543 406.75913,71.667103 Z"
   id="path1575" /><ellipse
   style="fill:#7fa2c1;fill-opacity:1;stroke:none;stroke-width:15;stroke-linecap:round;stroke-linejoin:round;paint-order:markers fill stroke"
   id="path1108"
   cx="-256.96848"
   cy="407.08197"
   rx="178.19923"
   ry="26.794451"
   transform="rotate(-90)" /><g
   id="g256"
   transform="matrix(0,-6.5725044,6.5725044,0,65.398196,446.60263)"
   style="fill:#ffffff;fill-opacity:1">
	<path
   d="m 20.128,47.184 c -0.682,0.033 -1.352,0.069 -2.009,0.108 -0.551,0.033 -0.972,0.506 -0.938,1.058 0.032,0.531 0.472,0.94 0.997,0.94 0.02,0 0.041,0 0.061,-0.002 0.65,-0.039 1.313,-0.074 1.987,-0.106 0.552,-0.027 0.977,-0.496 0.951,-1.047 -0.029,-0.552 -0.504,-0.977 -1.049,-0.951 z"
   id="path238"
   style="fill:#ffffff;fill-opacity:1" />
	<path
   d="m 8.072,48.311 c -0.714,0.113 -1.385,0.231 -2.009,0.355 -0.542,0.108 -0.894,0.634 -0.786,1.176 0.095,0.476 0.513,0.805 0.98,0.805 0.064,0 0.13,-0.006 0.196,-0.019 0.6,-0.119 1.245,-0.233 1.932,-0.342 C 8.93,50.2 9.303,49.687 9.217,49.142 9.131,48.597 8.616,48.225 8.072,48.311 Z"
   id="path240"
   style="fill:#ffffff;fill-opacity:1" />
	<path
   d="m 26.162,47.001 c -0.678,0.01 -1.348,0.023 -2.01,0.04 -0.552,0.013 -0.989,0.472 -0.975,1.024 0.013,0.544 0.458,0.976 0.999,0.976 0.008,0 0.017,0 0.025,0 0.656,-0.016 1.32,-0.029 1.991,-0.039 0.552,-0.008 0.993,-0.462 0.985,-1.015 -0.009,-0.552 -0.484,-0.994 -1.015,-0.986 z"
   id="path242"
   style="fill:#ffffff;fill-opacity:1" />
	<path
   d="m 14.099,47.59 c -0.69,0.062 -1.36,0.127 -2.009,0.197 -0.549,0.059 -0.947,0.551 -0.888,1.101 0.055,0.513 0.488,0.894 0.993,0.894 0.035,0 0.071,-0.002 0.107,-0.006 0.638,-0.068 1.296,-0.132 1.975,-0.193 0.55,-0.05 0.956,-0.536 0.907,-1.085 -0.049,-0.552 -0.537,-0.956 -1.085,-0.908 z"
   id="path244"
   style="fill:#ffffff;fill-opacity:1" />
	<path
   d="m 38.228,47.202 c -0.66,-0.033 -1.331,-0.063 -2.011,-0.088 -0.543,-0.017 -1.017,0.41 -1.037,0.962 -0.021,0.552 0.41,1.016 0.962,1.037 0.673,0.025 1.335,0.054 1.987,0.086 0.017,0.001 0.034,0.001 0.051,0.001 0.529,0 0.971,-0.416 0.998,-0.95 0.026,-0.551 -0.399,-1.021 -0.95,-1.048 z"
   id="path246"
   style="fill:#ffffff;fill-opacity:1" />
	<path
   d="m 50.284,48.368 c -0.634,-0.104 -1.305,-0.204 -2.009,-0.298 -0.542,-0.07 -1.05,0.312 -1.124,0.859 -0.073,0.547 0.311,1.05 0.859,1.124 0.683,0.091 1.333,0.188 1.949,0.289 0.055,0.009 0.11,0.013 0.164,0.013 0.481,0 0.905,-0.348 0.986,-0.837 0.089,-0.545 -0.28,-1.06 -0.825,-1.15 z"
   id="path248"
   style="fill:#ffffff;fill-opacity:1" />
	<path
   d="m 44.258,47.623 c -0.652,-0.06 -1.322,-0.117 -2.01,-0.169 -0.555,-0.045 -1.031,0.37 -1.073,0.921 -0.042,0.55 0.37,1.031 0.921,1.073 0.677,0.052 1.336,0.107 1.979,0.167 0.031,0.003 0.063,0.004 0.093,0.004 0.511,0 0.947,-0.39 0.995,-0.908 0.049,-0.551 -0.355,-1.038 -0.905,-1.088 z"
   id="path250"
   style="fill:#ffffff;fill-opacity:1" />
	<path
   d="m 32.194,47.006 c -0.664,-0.011 -1.334,-0.018 -2.011,-0.022 -0.002,0 -0.004,0 -0.006,0 -0.55,0 -0.997,0.444 -1,0.994 -0.003,0.552 0.442,1.002 0.994,1.006 0.67,0.004 1.333,0.011 1.99,0.022 0.005,0 0.011,0 0.017,0 0.544,0 0.991,-0.437 1,-0.984 0.009,-0.552 -0.431,-1.006 -0.984,-1.016 z"
   id="path252"
   style="fill:#ffffff;fill-opacity:1" />
	<path
   d="m 57.989,51.929 c -0.003,-0.067 -0.022,-0.131 -0.04,-0.197 -0.017,-0.065 -0.031,-0.129 -0.06,-0.188 -0.008,-0.017 -0.007,-0.035 -0.017,-0.052 l -28,-50 c -0.354,-0.631 -1.392,-0.631 -1.745,0 L 0.553,50.733 C 0.274,51.02 0.071,51.38 0.024,51.813 0.018,51.848 0.012,51.881 0.009,51.915 0.008,51.938 0,51.958 0,51.981 c 0,1.248 1.076,2.678 9.06,3.818 5.334,0.762 12.416,1.182 19.94,1.182 7.524,0 14.606,-0.419 19.94,-1.182 7.983,-1.141 9.06,-2.57 9.06,-3.818 0,-0.019 -0.01,-0.034 -0.011,-0.052 z M 29,54.981 C 13.687,54.981 3.777,53.27 2.157,51.987 2.284,51.899 2.48,51.783 2.807,51.642 3.314,51.423 3.547,50.834 3.328,50.327 3.294,50.248 3.237,50.188 3.186,50.123 L 29,4.028 54.312,49.227 c -10e-4,0 -0.003,-10e-4 -0.004,-10e-4 -0.534,-0.151 -1.084,0.157 -1.235,0.688 -0.151,0.531 0.157,1.084 0.688,1.235 0.713,0.203 1.287,0.411 1.706,0.619 0.103,0.051 0.211,0.077 0.319,0.09 l 0.068,0.121 C 54.263,53.263 44.344,54.981 29,54.981 Z"
   id="path254"
   style="fill:#ffffff;fill-opacity:1" />
</g></svg>
