<?xml version="1.0" encoding="UTF-8" standalone="no"?>
<!-- Generator: Adobe Illustrator 24.1.1, SVG Export Plug-In . SVG Version: 6.00 Build 0)  -->

<svg
   version="1.1"
   id="Layer_1"
   x="0px"
   y="0px"
   viewBox="0 0 512 512"
   style="enable-background:new 0 0 512 512;"
   xml:space="preserve"
   sodipodi:docname="reconfigure.svg"
   inkscape:version="1.2 (dc2aedaf03, 2022-05-15)"
   xmlns:inkscape="http://www.inkscape.org/namespaces/inkscape"
   xmlns:sodipodi="http://sodipodi.sourceforge.net/DTD/sodipodi-0.dtd"
   xmlns="http://www.w3.org/2000/svg"
   xmlns:svg="http://www.w3.org/2000/svg"><defs
   id="defs9">
	
</defs><sodipodi:namedview
   id="namedview7"
   pagecolor="#505050"
   bordercolor="#ffffff"
   borderopacity="1"
   inkscape:showpageshadow="0"
   inkscape:pageopacity="0"
   inkscape:pagecheckerboard="1"
   inkscape:deskcolor="#505050"
   showgrid="false"
   inkscape:zoom="1.0951869"
   inkscape:cx="89.025901"
   inkscape:cy="195.85698"
   inkscape:window-width="1920"
   inkscape:window-height="996"
   inkscape:window-x="-8"
   inkscape:window-y="-8"
   inkscape:window-maximized="1"
   inkscape:current-layer="Layer_1" />
<style
   type="text/css"
   id="style2">
	.st0{fill:#333333;}
</style>

<g
   id="g1041"
   transform="matrix(14.338304,0,0,14.338304,64.092193,64.081798)"><path
     d="m 17.601,12.297 c 0.556,-0.371 1.212,-0.529 1.854,-0.457 L 26.769,4.524 22.673,0.428 15.358,7.744 c 0.074,0.65 -0.09,1.314 -0.476,1.877 z"
     id="path132"
     style="fill:#979797;fill-opacity:1" /><polygon
     points="4.577,20.942 3.19,22.063 0.854,25.744 1.452,26.342 5.136,24.006 6.256,22.623 5.99,22.354 10.642,17.701 9.486,16.561 4.842,21.207 "
     id="polygon134"
     style="fill:#979797;fill-opacity:1" /><path
     d="M 11.204,8.307 C 11.741,6.387 11.254,4.241 9.747,2.731 8.245,1.235 6.124,0.744 4.215,1.262 L 7.448,4.494 6.6,7.66 3.43,8.508 0.198,5.278 c -0.516,1.908 -0.026,4.029 1.473,5.529 1.571,1.572 3.835,2.033 5.815,1.389 l 0.018,0.018 13.299,13.299 c 0.526,0.525 1.216,0.791 1.905,0.791 0.69,0 1.378,-0.266 1.906,-0.791 1.051,-1.049 1.051,-2.754 0,-3.811 z M 22.94,25.061 c -0.566,0 -1.025,-0.461 -1.025,-1.029 0,-0.57 0.459,-1.029 1.025,-1.029 0.57,0 1.031,0.459 1.031,1.029 0.001,0.568 -0.46,1.029 -1.031,1.029 z"
     id="path136"
     style="fill:#e7e7e7;fill-opacity:1" /><g
     id="g138"
     style="fill:#ffffff;fill-opacity:1">
	</g><g
     id="g140"
     style="fill:#ffffff;fill-opacity:1">
	</g><g
     id="g142"
     style="fill:#ffffff;fill-opacity:1">
	</g><g
     id="g144"
     style="fill:#ffffff;fill-opacity:1">
	</g><g
     id="g146"
     style="fill:#ffffff;fill-opacity:1">
	</g><g
     id="g148"
     style="fill:#ffffff;fill-opacity:1">
	</g><g
     id="g150"
     style="fill:#ffffff;fill-opacity:1">
	</g><g
     id="g152"
     style="fill:#ffffff;fill-opacity:1">
	</g><g
     id="g154"
     style="fill:#ffffff;fill-opacity:1">
	</g><g
     id="g156"
     style="fill:#ffffff;fill-opacity:1">
	</g><g
     id="g158"
     style="fill:#ffffff;fill-opacity:1">
	</g><g
     id="g160"
     style="fill:#ffffff;fill-opacity:1">
	</g><g
     id="g162"
     style="fill:#ffffff;fill-opacity:1">
	</g><g
     id="g164"
     style="fill:#ffffff;fill-opacity:1">
	</g><g
     id="g166"
     style="fill:#ffffff;fill-opacity:1">
	</g></g></svg>
