<?xml version="1.0" encoding="UTF-8" standalone="no"?>
<!-- Generator: Adobe Illustrator 24.1.1, SVG Export Plug-In . SVG Version: 6.00 Build 0)  -->

<svg
   version="1.1"
   id="Layer_1"
   x="0px"
   y="0px"
   viewBox="0 0 512 512"
   style="enable-background:new 0 0 512 512;"
   xml:space="preserve"
   sodipodi:docname="robotmodel.svg"
   inkscape:version="1.2 (dc2aedaf03, 2022-05-15)"
   xmlns:inkscape="http://www.inkscape.org/namespaces/inkscape"
   xmlns:sodipodi="http://sodipodi.sourceforge.net/DTD/sodipodi-0.dtd"
   xmlns="http://www.w3.org/2000/svg"
   xmlns:svg="http://www.w3.org/2000/svg"><defs
   id="defs9">
	
</defs><sodipodi:namedview
   id="namedview7"
   pagecolor="#505050"
   bordercolor="#ffffff"
   borderopacity="1"
   inkscape:showpageshadow="0"
   inkscape:pageopacity="0"
   inkscape:pagecheckerboard="1"
   inkscape:deskcolor="#505050"
   showgrid="false"
   inkscape:zoom="1.5488281"
   inkscape:cx="132.68096"
   inkscape:cy="309.58891"
   inkscape:window-width="1920"
   inkscape:window-height="996"
   inkscape:window-x="-8"
   inkscape:window-y="-8"
   inkscape:window-maximized="1"
   inkscape:current-layer="Layer_1" />
<style
   type="text/css"
   id="style2">
	.st0{fill:#333333;}
</style>

<path
   d="m 96.437851,248.18998 h 20.875619 v -4.84455 c 0,-6.45942 1.29192,-12.62522 3.64077,-18.26252 2.43698,-5.84283 5.98963,-11.1278 10.42316,-15.53194 4.40413,-4.40414 9.68911,-7.98618 15.53192,-10.42314 5.63732,-2.34887 11.8031,-3.64076 18.26253,-3.64076 h 83.06211 v -0.41105 -29.74265 c -1.3506,-0.49913 -2.64249,-1.11571 -3.87564,-1.82038 -1.7323,-1.02763 -3.31779,-2.26079 -4.72712,-3.67011 -2.17271,-2.17271 -3.93436,-4.78584 -5.13816,-7.69257 -1.14508,-2.78929 -1.79102,-5.8722 -1.79102,-9.04318 0,-3.20034 0.64594,-6.25388 1.79102,-9.04317 1.2038,-2.90673 2.96545,-5.51986 5.13816,-7.69257 2.17271,-2.17271 4.78584,-3.93437 7.69257,-5.13817 2.78929,-1.17443 5.87219,-1.79101 9.04318,-1.79101 3.17098,0 6.25388,0.64593 9.04317,1.79101 2.90673,1.2038 5.51986,2.96546 7.69257,5.13817 2.17271,2.17271 3.93437,4.78584 5.13817,7.69257 1.14507,2.78929 1.79101,5.87219 1.79101,9.04317 0,3.20035 -0.64594,6.25389 -1.79101,9.04318 -1.2038,2.90673 -2.96546,5.51986 -5.13817,7.69257 l -0.11744,0.11743 c -1.37996,1.3506 -2.93609,2.5544 -4.60967,3.55267 -1.23315,0.73403 -2.52504,1.35061 -3.87564,1.82038 v 29.74265 0.41105 h 83.06214 c 6.45941,0 12.62521,1.29189 18.26252,3.64076 5.87218,2.43696 11.12779,5.98963 15.53195,10.42314 4.40413,4.40414 7.98615,9.68911 10.42312,15.53194 2.34887,5.63731 3.64077,11.8031 3.64077,18.26251 v 4.84456 h 20.1416 c 2.78929,0 5.4905,0.55786 7.95682,1.58549 2.55441,1.057 4.84455,2.61313 6.75302,4.52159 l 0.11737,0.11744 c 1.8791,1.90846 3.3765,4.13989 4.40413,6.63557 1.02763,2.46632 1.5855,5.13817 1.5855,7.95682 v 55.55098 c 0,2.78928 -0.55787,5.49047 -1.5855,7.9568 -1.05697,2.52504 -2.6131,4.84455 -4.52158,6.75301 v 0 c -3.75821,3.75821 -8.98444,6.10709 -14.70984,6.10709 h -20.17097 c -0.088,6.19515 -1.37997,12.15544 -3.64076,17.58723 -2.43695,5.87216 -5.98963,11.12776 -10.42313,15.53192 -4.40416,4.40413 -9.68913,7.98618 -15.53194,10.42313 -5.63732,2.34889 -11.80311,3.64076 -18.26252,3.64076 H 165.17185 c -6.45943,0 -12.62521,-1.29187 -18.26253,-3.64076 -5.87219,-2.43695 -11.12779,-5.98963 -15.53192,-10.42316 -4.40416,-4.40413 -7.98618,-9.68908 -10.42316,-15.53192 -2.26079,-5.43176 -3.55267,-11.39205 -3.64077,-17.58723 H 96.437851 c -2.789286,0 -5.490511,-0.55783 -7.956802,-1.58546 -2.554415,-1.05701 -4.844555,-2.61314 -6.753046,-4.5216 l -0.117244,-0.11724 c -1.879085,-1.90846 -3.376491,-4.13991 -4.404126,-6.63555 -1.027635,-2.46635 -1.585498,-5.16755 -1.585498,-7.95686 V 269.0069 c 0,-2.78929 0.557863,-5.4905 1.585498,-7.95682 1.057009,-2.5544 2.613133,-4.84456 4.521593,-6.75302 v 0 c 1.90846,-1.90846 4.198631,-3.46459 6.753014,-4.52159 2.466323,-1.02763 5.138142,-1.58549 7.956802,-1.58549 z m 32.590659,5.87219 v 90.63726 c 0,4.87393 0.96892,9.51296 2.73057,13.77031 1.84974,4.40412 4.52159,8.39723 7.86874,11.74435 3.34712,3.34718 7.34022,6.04837 11.74435,7.86874 4.228,1.76168 8.89637,2.7306 13.7703,2.7306 h 182.41959 c 4.87392,0 9.51295,-0.96892 13.77029,-2.7306 4.40413,-1.84975 8.39724,-4.52156 11.74439,-7.86874 3.34714,-3.34712 6.04835,-7.34023 7.86874,-11.74435 1.76163,-4.22798 2.73055,-8.89638 2.73055,-13.77031 v -101.354 c 0,-4.87392 -0.96892,-9.54231 -2.73055,-13.77029 -1.84976,-4.40415 -4.5216,-8.39723 -7.86874,-11.74438 -3.34715,-3.34715 -7.34026,-6.04836 -11.74439,-7.86874 -4.22797,-1.76165 -8.89637,-2.73057 -13.77029,-2.73057 H 165.17185 c -4.87393,0 -9.51296,0.96892 -13.77031,2.73057 -4.40412,1.84974 -8.39723,4.52159 -11.74435,7.86874 -3.34718,3.34715 -6.04837,7.34023 -7.86874,11.74438 -1.76165,4.22798 -2.7306,8.89637 -2.7306,13.77029 v 10.71674 z M 117.31347,259.905 H 96.437851 c -1.233162,0 -2.407606,0.2349 -3.464584,0.6753 -1.115727,0.46978 -2.113987,1.14508 -2.965469,1.99655 l -0.117244,0.0881 c -0.792733,0.82211 -1.438688,1.79102 -1.879117,2.84801 -0.440397,1.057 -0.675266,2.23144 -0.675266,3.4646 v 55.55093 c 0,1.23316 0.235124,2.40758 0.675266,3.46459 0.469803,1.11572 1.145101,2.11398 1.996552,2.96546 1.644216,1.64422 3.905012,2.67185 6.40071,2.67185 H 117.28432 V 259.905 Z m 298.27793,0 h -20.14163 v 73.72538 h 20.14163 c 1.23315,0 2.4076,-0.23512 3.46457,-0.67533 1.11574,-0.46977 2.114,-1.14506 2.96548,-1.99652 0.85145,-0.85148 1.52676,-1.84974 1.99652,-2.96546 0.44042,-1.05701 0.67532,-2.23143 0.67532,-3.46459 V 269.0069 c 0,-1.23316 -0.235,-2.4076 -0.67532,-3.4646 -0.46976,-1.11571 -1.14507,-2.11398 -1.99652,-2.96545 v 0 c -0.85148,-0.85147 -1.84974,-1.52677 -2.96548,-1.99655 -1.05697,-0.41105 -2.23142,-0.6753 -3.46457,-0.6753 z"
   id="path134"
   style="fill:#ffffff;fill-opacity:1;stroke:#ffffff;stroke-width:6.99999;stroke-dasharray:none;stroke-opacity:1"
   sodipodi:nodetypes="ccscccsccccscscscscscscscccccscccscscsccsscsssccccssccccscsccsscsscscccsscscsscscsscscscccscccssscsscccsccscscsscsscsscs" /><path
   d="m 190.86813,239.65775 c 1.88061,0 3.76122,0.18803 5.5478,0.56418 1.81792,0.37612 3.60449,0.90896 5.32838,1.62985 1.75524,0.7209 3.41644,1.59852 4.95228,2.63286 1.50448,1.00299 2.91493,2.13136 4.16867,3.3851 l 0.18807,0.15672 c 1.31642,1.31642 2.50747,2.75822 3.5418,4.32539 l 0.0627,0.094 c 1.003,1.5045 1.88061,3.13435 2.57017,4.85825 0.7209,1.72388 1.25374,3.51046 1.62986,5.32838 0.34478,1.81792 0.56419,3.66719 0.56419,5.5478 0,1.88061 -0.18807,3.76121 -0.56419,5.5478 -0.37612,1.81794 -0.90896,3.60449 -1.62986,5.35974 -0.7209,1.75522 -1.59852,3.41642 -2.63285,4.95225 -1.06568,1.59856 -2.25673,3.04034 -3.54182,4.32543 -2.6015,2.60147 -5.76719,4.73286 -9.30901,6.17464 -1.72389,0.72089 -3.51047,1.25374 -5.35974,1.62987 -1.8179,0.34479 -3.66718,0.53283 -5.54779,0.53283 -1.88059,0 -3.76121,-0.18798 -5.54777,-0.53283 -1.81792,-0.37613 -3.60448,-0.90898 -5.35973,-1.62987 -1.75521,-0.72089 -3.41644,-1.5985 -4.95224,-2.63286 -1.59856,-1.0657 -3.04037,-2.25672 -4.32543,-3.54178 -1.31645,-1.31644 -2.50746,-2.75822 -3.54181,-4.32543 l -0.0625,-0.094 c -1.00304,-1.50444 -1.88064,-3.13432 -2.57018,-4.85819 -0.72089,-1.72393 -1.25375,-3.51049 -1.62988,-5.32842 -0.34476,-1.81792 -0.53279,-3.66719 -0.53279,-5.54779 0,-1.88062 0.18797,-3.76123 0.53279,-5.5478 0.37613,-1.81792 0.90899,-3.6045 1.62988,-5.32839 0.72089,-1.75524 1.59852,-3.41644 2.63282,-4.95228 1.0657,-1.59851 2.25678,-3.0403 3.54184,-4.32539 1.31641,-1.31643 2.75822,-2.50748 4.3254,-3.54181 l 0.0937,-0.0627 c 1.50451,-1.00299 3.13436,-1.88061 4.85825,-2.57017 1.7239,-0.7209 3.51046,-1.25374 5.32838,-1.62986 1.84926,-0.40746 3.72988,-0.59553 5.61046,-0.59553 z m 130.32618,0 c 1.88062,0 3.76122,0.18803 5.5478,0.56418 1.81792,0.37612 3.6045,0.90896 5.32839,1.62985 1.75523,0.7209 3.41643,1.59852 4.95226,2.63286 1.47315,1.00299 2.85226,2.10002 4.106,3.35376 0.0627,0.0627 0.15672,0.12537 0.21942,0.18803 1.31642,1.31643 2.50748,2.75824 3.54181,4.3254 l 0.0627,0.094 c 1.00299,1.5045 1.88061,3.13436 2.57017,4.85825 0.72089,1.72389 1.25374,3.51047 1.62985,5.32839 0.34478,1.81792 0.53285,3.66718 0.53285,5.54779 0,1.88061 -0.18804,3.76123 -0.53285,5.5478 -0.37611,1.81793 -0.90896,3.60452 -1.62985,5.35973 -0.7209,1.75522 -1.59852,3.41642 -2.63286,4.95225 -1.06567,1.59856 -2.25673,3.04034 -3.54181,4.32543 -1.31643,1.31641 -2.75823,2.50745 -4.3254,3.54181 l -0.094,0.0625 c -1.53583,1.00297 -3.13435,1.88061 -4.85824,2.57018 -1.72389,0.72086 -3.51046,1.25375 -5.35973,1.62982 -1.81792,0.34478 -3.66719,0.53282 -5.5478,0.53282 -1.88061,0 -3.76121,-0.18797 -5.5478,-0.53282 -1.81791,-0.37607 -3.6045,-0.90896 -5.35973,-1.62982 -1.78657,-0.75227 -3.44777,-1.62988 -4.95227,-2.63285 l -0.15671,-0.12521 c -1.5045,-1.03436 -2.91495,-2.16273 -4.16869,-3.41644 -1.31642,-1.31645 -2.50747,-2.75822 -3.54181,-4.32544 l -0.0628,-0.0937 c -1.00296,-1.50445 -1.88058,-3.13433 -2.57013,-4.8582 -0.7209,-1.72389 -1.25374,-3.51049 -1.62986,-5.32841 -0.34478,-1.81792 -0.56418,-3.66719 -0.56418,-5.5478 0,-1.8806 0.18804,-3.76121 0.56418,-5.54779 0.37612,-1.81792 0.90896,-3.6045 1.62986,-5.3284 0.7209,-1.75523 1.59852,-3.41643 2.63285,-4.95227 1.06568,-1.5985 2.25673,-3.04031 3.54181,-4.32539 1.28509,-1.28509 2.75823,-2.47613 4.3254,-3.54182 1.53584,-1.03433 3.19704,-1.91195 4.95227,-2.66419 1.72389,-0.7209 3.51048,-1.25373 5.32839,-1.62985 1.88061,-0.37613 3.72988,-0.56419 5.61048,-0.56419 z"
   style="fill:#dc1e33;fill-opacity:1;stroke:none;stroke-width:2.34549;stroke-dasharray:none;stroke-opacity:1"
   id="path3332"
   sodipodi:nodetypes="sccccccsccscscsccscscsccccscccsccccssccccsccsccscscsccccsccccsccccscccsccccc" /><path
   d="m 210.10767,333.12624 c -0.43881,-0.34478 -0.81493,-0.72089 -1.15971,-1.15972 -1.03433,-1.25374 -1.56717,-2.69552 -1.59851,-4.16868 -0.0312,-1.4731 0.43881,-2.94626 1.41045,-4.23132 0.34478,-0.43881 0.7209,-0.84629 1.19105,-1.22243 1.62986,-1.34776 3.79257,-2.06868 5.92392,-2.10003 2.13136,-0.0319 4.26271,0.59552 5.95526,1.88061 5.82989,4.48215 11.5971,7.74185 17.30161,9.90455 5.64182,2.13135 11.22096,3.13439 16.73742,3.07166 5.54779,-0.0625 11.15827,-1.2224 16.89413,-3.3851 5.79854,-2.19402 11.62842,-5.48509 17.55235,-9.71647 1.75523,-1.25375 3.91793,-1.81792 6.04929,-1.7239 2.13136,0.094 4.26271,0.84629 5.86123,2.25675 0.40746,0.37613 0.78358,0.78359 1.12836,1.25374 0.9403,1.31641 1.37911,2.82092 1.28508,4.29405 -0.094,1.47313 -0.68955,2.91491 -1.75523,4.1373 -0.37612,0.40749 -0.81493,0.81498 -1.31642,1.15976 -7.42841,5.35969 -14.88815,9.43436 -22.44193,12.22393 -7.58512,2.78957 -15.26428,4.26273 -23.03747,4.35675 -7.80452,0.094 -15.51502,-1.22239 -23.19417,-4.01196 -7.61647,-2.75822 -15.20159,-6.98961 -22.66134,-12.72544 z"
   style="fill:#c5c5c5;fill-opacity:1;stroke:#c5c5c5;stroke-width:2.34549;stroke-dasharray:none;stroke-opacity:1"
   id="path346" /><rect
   style="fill:#ffffff;fill-opacity:1;stroke:none;stroke-width:7;stroke-linecap:round;stroke-linejoin:round;stroke-opacity:1;paint-order:markers fill stroke"
   id="rect3202"
   width="16.435551"
   height="94.960968"
   x="320.49326"
   y="104.09183"
   ry="8.2177753" /><rect
   style="fill:#ffffff;fill-opacity:1;stroke:none;stroke-width:5.53399;stroke-linecap:round;stroke-linejoin:round;stroke-opacity:1;paint-order:markers fill stroke"
   id="rect3202-6"
   width="16.435551"
   height="59.350605"
   x="174.856"
   y="141.07182"
   ry="5.1361098" /></svg>
