<?xml version="1.0" encoding="UTF-8" standalone="no"?>
<!-- Generator: Adobe Illustrator 24.1.1, SVG Export Plug-In . SVG Version: 6.00 Build 0)  -->

<svg
   version="1.1"
   id="Layer_1"
   x="0px"
   y="0px"
   viewBox="0 0 512 512"
   style="enable-background:new 0 0 512 512;"
   xml:space="preserve"
   sodipodi:docname="satelite.svg"
   inkscape:version="1.2 (dc2aedaf03, 2022-05-15)"
   xmlns:inkscape="http://www.inkscape.org/namespaces/inkscape"
   xmlns:sodipodi="http://sodipodi.sourceforge.net/DTD/sodipodi-0.dtd"
   xmlns="http://www.w3.org/2000/svg"
   xmlns:svg="http://www.w3.org/2000/svg"><defs
   id="defs9">
	
</defs><sodipodi:namedview
   id="namedview7"
   pagecolor="#505050"
   bordercolor="#ffffff"
   borderopacity="1"
   inkscape:showpageshadow="0"
   inkscape:pageopacity="0"
   inkscape:pagecheckerboard="1"
   inkscape:deskcolor="#505050"
   showgrid="false"
   inkscape:zoom="0.77441408"
   inkscape:cx="18.723833"
   inkscape:cy="182.71878"
   inkscape:window-width="1920"
   inkscape:window-height="996"
   inkscape:window-x="-8"
   inkscape:window-y="-8"
   inkscape:window-maximized="1"
   inkscape:current-layer="Layer_1" />
<style
   type="text/css"
   id="style2">
	.st0{fill:#333333;}
</style>

<path
   id="path1634"
   style="fill:#66ce4f;fill-opacity:1;stroke:none;stroke-width:0.605514px;stroke-linecap:butt;stroke-linejoin:miter;stroke-opacity:1"
   d="M 102.44531 231 L 97.501953 256.99805 C 137.36938 269.90975 170.22553 279.77405 199.43945 288.05664 C 195.39878 283.6422 191.45672 279.13256 187.70508 274.45312 C 176.70096 261.07991 167.41643 246.47569 159.95703 231 L 102.44531 231 z M 353.70312 231 C 339.90547 262.27549 319.32918 290.14587 293.48242 312.63086 C 314.18914 317.6137 334.08425 322.24432 354.74023 327.20508 L 413.79883 253.32422 L 409.55469 231 L 353.70312 231 z " /><path
   id="path1636"
   style="fill:#d3b852;fill-opacity:1;stroke:none;stroke-width:0.605514px;stroke-linecap:butt;stroke-linejoin:miter;stroke-opacity:1"
   d="M 91.504438,286.76014 63.990255,433.29668 h 50.774405 l 2.42205,-139.52938 z" /><path
   id="path1638"
   style="fill:#71b0ce;fill-opacity:1;stroke:none;stroke-width:0.605514px;stroke-linecap:butt;stroke-linejoin:miter;stroke-opacity:1"
   d="m 147.72373,302.10138 -2.42206,131.19294 H 269.9262 l 63.92541,-82.37582 z" /><path
   id="path1640"
   style="fill:#997234;fill-opacity:1;stroke:none;stroke-width:0.605514px;stroke-linecap:butt;stroke-linejoin:miter;stroke-opacity:1"
   d="M 419.32829,288.20769 304.30446,433.29432 h 143.70529 z" /><path
   d="m 262.55366,303.81573 c -2.01175,1.51063 -4.7543,1.59909 -6.8592,0.22124 -22.6563,-14.26658 -42.7727,-32.2143 -59.52024,-53.10357 -20.50052,-24.91412 -34.28716,-54.65823 -40.04892,-86.4039 -4.75721,-29.46509 -0.22125,-57.78696 14.52973,-80.83538 5.95545,-9.3625 13.43396,-17.663676 22.12645,-24.56038 19.02029,-15.880371 42.9309,-24.723129 67.70704,-25.039801 23.99205,0.387074 46.96695,9.755992 64.38803,26.256761 6.6909,6.133513 12.47695,13.18603 17.1849,20.94639 15.74668,25.81421 19.1394,59.00393 12.20645,92.6362 -11.73565,53.92135 -44.82632,100.78322 -91.71424,129.88242 z M 256.02635,86.49684 c 45.07924,0 67.64684,54.49878 35.77488,86.37074 -31.87201,31.87199 -86.37078,9.30439 -86.37078,-35.77488 0,-27.94331 22.65257,-50.59586 50.5959,-50.59586 z"
   style="fill:#ff5b5b;fill-opacity:1;fill-rule:evenodd;stroke-width:3.68773"
   id="path1043-4" /></svg>
