<?xml version="1.0" encoding="UTF-8" standalone="no"?>
<!-- Generator: Adobe Illustrator 24.1.1, SVG Export Plug-In . SVG Version: 6.00 Build 0)  -->

<svg
   version="1.1"
   id="Layer_1"
   x="0px"
   y="0px"
   viewBox="0 0 512 512"
   style="enable-background:new 0 0 512 512;"
   xml:space="preserve"
   sodipodi:docname="settings.svg"
   inkscape:version="1.2 (dc2aedaf03, 2022-05-15)"
   xmlns:inkscape="http://www.inkscape.org/namespaces/inkscape"
   xmlns:sodipodi="http://sodipodi.sourceforge.net/DTD/sodipodi-0.dtd"
   xmlns="http://www.w3.org/2000/svg"
   xmlns:svg="http://www.w3.org/2000/svg"><defs
   id="defs9">
	

	
	
	
</defs><sodipodi:namedview
   id="namedview7"
   pagecolor="#505050"
   bordercolor="#ffffff"
   borderopacity="1"
   inkscape:showpageshadow="0"
   inkscape:pageopacity="0"
   inkscape:pagecheckerboard="1"
   inkscape:deskcolor="#505050"
   showgrid="false"
   inkscape:zoom="1.5488282"
   inkscape:cx="219.84363"
   inkscape:cy="192.0807"
   inkscape:window-width="1920"
   inkscape:window-height="996"
   inkscape:window-x="-8"
   inkscape:window-y="-8"
   inkscape:window-maximized="1"
   inkscape:current-layer="Layer_1" />
<style
   type="text/css"
   id="style2">
	.st0{fill:#333333;}
</style>

<path
   d="m 84.816095,203.3407 c 2.071677,7.10289 4.946657,13.95211 8.582661,20.37853 l -10.358384,13.06425 c -3.382329,4.27019 -3.001817,10.35838 0.803303,14.20578 l 17.841785,17.84179 c 3.8474,3.8474 9.93559,4.18521 14.20579,0.80288 l 12.97968,-10.27382 c 6.6801,3.84782 13.783,6.84921 21.18184,8.96317 l 1.94484,16.70025 c 0.63419,5.41173 5.20033,9.47052 10.61206,9.47052 h 25.24063 c 5.41173,0 9.97787,-4.05922 10.61206,-9.47052 l 1.86028,-16.10834 c 7.94847,-2.07168 15.55871,-5.15806 22.70389,-9.17457 l 12.55689,9.93559 c 4.27019,3.38233 10.35839,3.00182 14.20579,-0.8033 l 17.84178,-17.84179 c 3.8474,-3.8474 4.18564,-9.93559 0.80331,-14.20578 l -9.76648,-12.38778 c 4.0588,-7.01876 7.22973,-14.50174 9.34368,-22.32338 l 15.05137,-1.73344 c 5.41215,-0.63419 9.47052,-5.20033 9.47052,-10.61206 v -25.24063 c 0,-5.41173 -4.05879,-9.97787 -9.47052,-10.61206 l -14.83997,-1.73344 c -2.02982,-7.73708 -5.07349,-15.13593 -8.96275,-22.0697 l 9.13229,-11.5422 c 3.38233,-4.27019 3.00182,-10.35838 -0.8033,-14.20578 L 249.78963,86.565358 c -3.8474,-3.8474 -9.93559,-4.185632 -14.20578,-0.803303 l -11.20397,8.878614 c -7.27201,-4.270191 -15.05179,-7.525682 -23.21123,-9.724197 l -1.69117,-14.501736 c -0.63419,-5.411727 -5.20033,-9.470522 -10.61206,-9.470522 h -25.24063 c -5.41173,0 -9.97787,4.058795 -10.61206,9.470522 l -1.69116,14.501736 c -8.37127,2.240794 -16.36202,5.623123 -23.80315,10.06243 l -11.62675,-9.216847 c -4.27019,-3.382329 -10.35839,-3.001817 -14.20578,0.803303 L 83.844098,104.40714 c -3.847399,3.8474 -4.185632,9.9356 -0.803303,14.20579 l 9.724197,12.30322 c -3.889679,7.01833 -6.849217,14.50174 -8.794057,22.28109 l -15.558714,1.77573 c -5.411727,0.63418 -9.470522,5.20033 -9.470522,10.61206 v 25.24063 c 0,5.41172 4.058795,9.97787 9.470522,10.61206 z m 91.449725,-68.28077 c 22.99984,0 41.72949,18.72965 41.72949,41.72948 0,22.99984 -18.72965,41.72949 -41.72949,41.72949 -22.99941,0 -41.72948,-18.72965 -41.72948,-41.72949 0,-22.99983 18.72964,-41.72948 41.72948,-41.72948 z"
   id="path2"
   style="fill:#ffffff;fill-opacity:1;stroke-width:0.422791" /><path
   d="m 425.79674,209.55573 -13.31792,-11.24625 c -4.10065,-3.46688 -10.14699,-3.29777 -14.03624,0.38052 l -7.35657,6.89149 c -6.21461,-3.00181 -12.81015,-5.11577 -19.61751,-6.34187 l -2.07083,-10.14698 c -1.05698,-5.24261 -5.91908,-8.87862 -11.24709,-8.45583 l -17.37672,1.47977 c -5.32717,0.46507 -9.5128,4.81982 -9.68191,10.18927 l -0.33781,10.3161 c -6.68053,2.40991 -12.98012,5.70768 -18.73008,9.85104 l -8.79363,-5.83452 c -4.48243,-2.95954 -10.44336,-2.11396 -13.90983,1.98712 l -11.24624,13.40248 c -3.46731,4.10107 -3.2982,10.14699 0.37966,14.03666 l 7.69523,8.20173 c -2.66401,6.00364 -4.56657,12.30365 -5.66541,18.77193 l -10.99257,2.24079 c -5.24261,1.05698 -8.87861,5.91908 -8.45582,11.24667 l 1.47977,17.37672 c 0.46507,5.32716 4.81982,9.5128 10.18927,9.68191 l 11.88043,0.38009 c 2.15708,5.6654 4.98936,11.03527 8.41354,16.06607 l -6.6374,10.02015 c -2.95953,4.48158 -2.11395,10.44294 1.9867,13.90983 l 13.31792,11.24624 c 4.1015,3.46689 10.14699,3.29777 14.03709,-0.38051 l 8.7095,-8.15987 c 5.70768,2.66358 11.71089,4.6507 17.88364,5.83452 l 2.41033,11.92271 c 1.05698,5.24261 5.91908,8.87861 11.24625,8.45582 l 17.37672,-1.47977 c 5.32716,-0.46507 9.5128,-4.81939 9.68191,-10.18926 l 0.38051,-11.66946 c 6.34187,-2.2408 12.34508,-5.28489 17.88365,-9.04731 l 9.59778,6.34187 c 4.48159,2.95953 10.44252,2.11395 13.90983,-1.98712 l 11.24624,-13.31792 c 3.46647,-4.10108 3.29735,-10.14699 -0.38051,-14.03667 l -7.7375,-8.20173 c 2.83312,-6.00363 4.90522,-12.3455 6.08819,-18.8569 l 10.56978,-2.15624 c 5.24261,-1.05698 8.87862,-5.91908 8.45583,-11.24667 l -1.47977,-17.37671 c -0.46507,-5.32717 -4.81982,-9.5128 -10.18927,-9.68192 l -10.61206,-0.33823 c -2.19893,-6.17276 -5.15847,-12.00685 -8.83633,-17.419 l 5.79181,-8.7095 c 3.04452,-4.48074 2.19894,-10.48437 -1.90256,-13.95126 z m -65.4895,100.45476 c -18.77193,1.60703 -35.34619,-12.38778 -36.91009,-31.15929 -1.60703,-18.77193 12.3882,-35.34576 31.15928,-36.91009 18.77193,-1.60661 35.34619,12.3882 36.91009,31.15971 1.60703,18.77235 -12.3882,35.34576 -31.15928,36.90967 z"
   id="path4"
   style="fill:#c2c2c2;fill-opacity:1;stroke-width:0.422791" /><path
   d="m 145.61346,356.77161 c -5.32716,0.54963 -9.42824,5.03079 -9.47052,10.40066 l -0.12684,10.69662 c -0.0846,5.36945 3.88968,9.93559 9.21685,10.61248 l 7.86392,1.01428 c 1.31065,4.77796 3.17093,9.3441 5.58084,13.65657 l -5.07349,6.25731 c -3.38233,4.18521 -3.12866,10.18927 0.63418,14.03667 l 7.48341,7.65252 c 3.76284,3.8474 9.76647,4.27019 14.03666,0.97242 l 6.29917,-4.8621 c 4.43931,2.62131 9.13271,4.69341 14.03667,6.13047 l 0.84558,8.11759 c 0.54963,5.32717 5.03121,9.42825 10.40066,9.47053 l 10.69704,0.12683 c 5.36902,0.0846 9.93559,-3.88968 10.61206,-9.21684 l 0.97242,-7.6948 c 5.32759,-1.31108 10.40108,-3.29777 15.22048,-5.91908 l 5.91908,4.77754 c 4.18563,3.38233 10.18969,3.12865 14.03708,-0.63419 l 7.65252,-7.4834 c 3.8474,-3.76242 4.2702,-9.76648 0.97285,-14.03667 l -4.52471,-5.87722 c 2.79042,-4.6507 4.94708,-9.59736 6.42684,-14.79769 l 7.01834,-0.71874 c 5.32717,-0.54963 9.42782,-5.03122 9.47052,-10.40066 l 0.12641,-10.69704 c 0.085,-5.36903 -3.88925,-9.9356 -9.21642,-10.61206 l -6.84964,-0.88786 c -1.31065,-5.15806 -3.25507,-10.14699 -5.79182,-14.79769 l 4.27019,-5.24261 c 3.38233,-4.18564 3.12866,-10.18927 -0.63418,-14.03667 l -7.48298,-7.65252 c -3.76284,-3.84782 -9.76732,-4.27061 -14.03709,-0.97242 l -5.1162,3.93196 c -4.81939,-2.91726 -9.97787,-5.15805 -15.38917,-6.6801 l -0.67689,-6.63782 c -0.54963,-5.3276 -5.03079,-9.42825 -10.40066,-9.47053 L 209.92,295.17052 c -5.36945,-0.0846 -9.93559,3.88968 -10.61248,9.21684 l -0.84558,6.59597 c -5.58042,1.43707 -10.94987,3.636 -15.93881,6.51056 l -5.28489,-4.31247 c -4.18563,-3.38233 -10.18969,-3.12823 -14.03709,0.63419 l -7.6948,7.5261 c -3.8474,3.76242 -4.27019,9.76648 -0.97242,14.03625 l 4.52387,5.83494 c -2.62131,4.6507 -4.69298,9.59693 -6.04591,14.79769 z m 69.0418,-12.09225 c 15.34732,0.16912 27.65012,12.811 27.48143,28.15832 -0.16912,15.34731 -12.811,27.65011 -28.15832,27.48142 -15.34732,-0.16912 -27.65012,-12.81057 -27.48142,-28.15831 0.16954,-15.3469 12.81099,-27.65012 28.15831,-27.48143 z"
   id="path6"
   style="fill:#83b3f1;fill-opacity:1;stroke-width:0.422791" /></svg>
