<?xml version="1.0" encoding="UTF-8" standalone="no"?>
<!-- Generator: Adobe Illustrator 24.1.1, SVG Export Plug-In . SVG Version: 6.00 Build 0)  -->

<svg
   version="1.1"
   id="Layer_1"
   x="0px"
   y="0px"
   viewBox="0 0 512 512"
   style="enable-background:new 0 0 512 512;"
   xml:space="preserve"
   sodipodi:docname="speedometer_dial.svg"
   inkscape:version="1.2 (dc2aedaf03, 2022-05-15)"
   xmlns:inkscape="http://www.inkscape.org/namespaces/inkscape"
   xmlns:sodipodi="http://sodipodi.sourceforge.net/DTD/sodipodi-0.dtd"
   xmlns="http://www.w3.org/2000/svg"
   xmlns:svg="http://www.w3.org/2000/svg"><defs
   id="defs9">
	

	
	
	

	

		
	
	
</defs><sodipodi:namedview
   id="namedview7"
   pagecolor="#505050"
   bordercolor="#ffffff"
   borderopacity="1"
   inkscape:showpageshadow="0"
   inkscape:pageopacity="0"
   inkscape:pagecheckerboard="1"
   inkscape:deskcolor="#505050"
   showgrid="false"
   inkscape:zoom="1.0951869"
   inkscape:cx="214.1187"
   inkscape:cy="194.94389"
   inkscape:window-width="1920"
   inkscape:window-height="996"
   inkscape:window-x="-8"
   inkscape:window-y="-8"
   inkscape:window-maximized="1"
   inkscape:current-layer="g135" />
<style
   type="text/css"
   id="style2">
	.st0{fill:#333333;}
</style>

<g
   id="g135"
   style="fill:#ffffff;fill-opacity:1;stroke:none;stroke-width:0;stroke-dasharray:none"
   transform="matrix(0.73266132,0,0,0.73266132,68.438336,68.438702)">
		
	<path
   d="m 293.70985,254.05392 c -0.20974,-5.77845 -1.74248,-11.19896 -4.29683,-15.97665 -6.41171,-11.99309 -19.25557,-19.94643 -33.76156,-19.42026 -2.79254,0.10073 -5.68457,0.56928 -8.27752,1.25524 L 87.543099,263.20414 26.674131,279.69121 -11.03289,289.90399 c -4.38837,1.18864 -5.38847,5.71954 -3.72149,8.83762 0.97584,1.82529 2.86614,3.16659 5.52588,3.07056 l 40.611549,-1.47246 59.910594,-2.17209 167.019547,-6.05468 c 20.28423,-0.73525 36.13212,-17.77521 35.39669,-38.0588 z m -54.06676,9.08577 c -4.69028,-8.77315 -1.38079,-19.68753 7.39278,-24.37803 8.77274,-4.69005 19.68774,-1.38036 24.37804,7.3928 4.69028,8.77314 1.37994,19.68797 -7.3928,24.37802 -8.77441,4.69097 -19.68774,1.38035 -24.37802,-7.39279 z"
   id="path304"
   style="fill:#000000;fill-opacity:1;stroke:none;stroke-width:0;stroke-dasharray:none"
   inkscape:transform-center-x="85.641378"
   inkscape:transform-center-y="3.4311526" /></g></svg>
