<?xml version="1.0" encoding="UTF-8" standalone="no"?>
<!-- Generator: Adobe Illustrator 24.1.1, SVG Export Plug-In . SVG Version: 6.00 Build 0)  -->

<svg
   version="1.1"
   id="Layer_1"
   x="0px"
   y="0px"
   viewBox="0 0 512 512"
   style="enable-background:new 0 0 512 512;"
   xml:space="preserve"
   sodipodi:docname="speedometer_icon.svg"
   inkscape:version="1.2 (dc2aedaf03, 2022-05-15)"
   xmlns:inkscape="http://www.inkscape.org/namespaces/inkscape"
   xmlns:sodipodi="http://sodipodi.sourceforge.net/DTD/sodipodi-0.dtd"
   xmlns="http://www.w3.org/2000/svg"
   xmlns:svg="http://www.w3.org/2000/svg"><defs
   id="defs9"><rect
   x="157.05082"
   y="314.10163"
   width="219.14067"
   height="69.394547"
   id="rect3492" />
	

	
	
	

	

		
	
	
</defs><sodipodi:namedview
   id="namedview7"
   pagecolor="#505050"
   bordercolor="#ffffff"
   borderopacity="1"
   inkscape:showpageshadow="0"
   inkscape:pageopacity="0"
   inkscape:pagecheckerboard="1"
   inkscape:deskcolor="#505050"
   showgrid="false"
   inkscape:zoom="1.0951869"
   inkscape:cx="172.11674"
   inkscape:cy="139.24564"
   inkscape:window-width="1920"
   inkscape:window-height="996"
   inkscape:window-x="-8"
   inkscape:window-y="-8"
   inkscape:window-maximized="1"
   inkscape:current-layer="g135" />
<style
   type="text/css"
   id="style2">
	.st0{fill:#333333;}
</style>

<g
   id="g135"
   style="fill:#ffffff;fill-opacity:1;stroke:none;stroke-width:0;stroke-dasharray:none"
   transform="matrix(0.73266132,0,0,0.73266132,68.438336,68.438702)">
		
	<g
   id="g1600"
   transform="translate(1.7046928,-50.638214)"><circle
     style="fill:#242424;fill-opacity:1;stroke:none;stroke-width:0;stroke-linecap:round;stroke-linejoin:round;stroke-dasharray:none;paint-order:markers fill stroke"
     id="path5353"
     cx="254.29581"
     cy="306.63821"
     r="300.73953" /><circle
     style="fill:#ffffff;fill-opacity:1;stroke:none;stroke-width:0;stroke-linecap:round;stroke-linejoin:round;stroke-dasharray:none;paint-order:markers fill stroke"
     id="circle431"
     cx="254.29581"
     cy="306.63821"
     r="285.18405" /><path
     d="m 527.70369,311.02081 c -0.0417,-1.18418 -0.0834,-2.37466 -0.12451,-3.56916 -0.0428,-1.1945 -0.0868,-2.39245 -0.13138,-3.59613 l -0.0349,-0.90075 -0.0169,-0.45152 v -0.11303 l -0.0113,-1.00976 v -0.0469 l -0.0146,-0.18705 -0.11538,-1.49571 c -0.15548,-1.996 -0.31087,-4.0006 -0.46636,-6.00522 l -0.11874,-1.5175 -0.17905,-1.96789 c -0.12394,-1.30867 -0.24732,-2.61677 -0.37069,-3.92201 -0.12788,-1.30292 -0.25645,-2.60415 -0.38377,-3.90077 -0.0665,-0.64775 -0.13138,-1.29433 -0.19684,-1.93977 -0.0789,-0.59725 -0.15831,-1.19336 -0.23751,-1.78947 -0.6534,-4.72866 -1.23695,-9.37585 -2.06995,-13.84348 -0.39356,-2.23524 -0.75683,-4.43319 -1.16526,-6.57549 -0.44586,-2.13714 -0.88179,-4.22667 -1.30635,-6.26167 -0.80437,-4.07233 -1.81473,-7.87556 -2.66619,-11.39138 -0.21803,-0.87722 -0.43143,-1.73781 -0.63965,-2.57718 -0.23177,-0.83594 -0.45904,-1.65061 -0.67988,-2.44639 -0.44867,-1.58693 -0.87379,-3.09296 -1.27423,-4.50663 -0.40742,-1.41194 -0.76651,-2.73725 -1.14171,-3.95241 -0.3867,-1.21114 -0.74128,-2.32416 -1.06196,-3.32933 -0.47571,-1.47679 -0.87671,-2.72063 -1.19288,-3.70343 -0.46759,-1.45096 -2.00053,-2.2668 -3.46698,-1.84912 l -92.14822,26.26008 c -1.40392,0.39989 -2.27426,1.79864 -2.00691,3.23411 0.0999,0.53586 0.21399,1.14977 0.34137,1.8365 0.13139,0.69135 0.27711,1.45785 0.43546,2.29148 0.14974,0.83593 0.26736,1.75158 0.41824,2.71947 0.14803,0.96902 0.30523,2.00117 0.47103,3.08838 0.0809,0.54331 0.17671,1.09697 0.25188,1.66954 0.0654,0.57374 0.13196,1.1618 0.20079,1.76135 0.25646,2.40047 0.63971,4.97423 0.8107,7.73385 0.11302,1.37293 0.23004,2.78373 0.34939,4.22322 0.0894,1.44465 0.13426,2.92487 0.21113,4.42286 0.19967,2.99085 0.1618,6.10505 0.21916,9.24563 l 0.0132,1.16985 -0.0414,1.03556 c -0.0236,0.6902 -0.0476,1.38154 -0.0711,2.07518 -0.0183,0.69019 -0.0373,1.38269 -0.0562,2.07633 l -0.0218,1.03672 -0.0631,1.49284 c -0.0849,2.0092 -0.17153,4.01724 -0.25704,6.01841 l -0.0636,1.49915 -0.009,0.18703 -9.9e-4,0.0459 c 9.9e-4,0.22546 -0.0173,-1.78488 -0.0115,-0.91683 l -0.008,0.0741 -0.0276,0.29606 -0.0545,0.5915 c -0.0711,0.78773 -0.14228,1.57087 -0.21285,2.35343 -0.0682,0.7797 -0.13655,1.55767 -0.20368,2.33049 -0.0918,0.76994 -0.18302,1.53644 -0.27481,2.2972 -0.19564,1.52038 -0.31612,3.02642 -0.55825,4.49344 -0.21227,1.46817 -0.4211,2.90995 -0.62536,4.32304 -0.2444,1.40277 -0.48306,2.7757 -0.71486,4.11134 -0.20999,1.33678 -0.49111,2.62422 -0.74125,3.87037 -0.26162,1.24384 -0.46989,2.45154 -0.74126,3.59785 -0.2645,1.14631 -0.51807,2.24328 -0.75962,3.28746 -0.11933,0.5152 -0.23523,1.01722 -0.34768,1.50604 -0.11589,0.41883 -0.22778,0.82502 -0.33736,1.21917 -0.0642,0.24097 -0.12505,0.46701 -0.1876,0.70052 h 112.7026 c 1.51061,0 2.76884,-1.18532 2.8262,-2.69481 4.4e-4,-0.009 4.4e-4,-0.0178 9.9e-4,-0.0269 0.0935,-2.09869 0.18985,-4.25363 0.28855,-6.45674 0.0417,-2.20083 0.0845,-4.44984 0.12846,-6.73671 0.0642,-2.28459 0,-4.60648 -0.0113,-6.95417 -0.0135,-1.17327 -0.0247,-2.35343 -0.0383,-3.53989 z"
     id="path290"
     style="fill:#e54649;fill-opacity:1;stroke:#000000;stroke-width:0;stroke-dasharray:none;stroke-opacity:1" /><path
     d="m 200.32706,99.529812 c 0.78715,-0.103886 1.55997,-0.232356 2.33162,-0.313831 0.77167,-0.07809 1.53415,-0.155478 2.28576,-0.232356 1.50028,-0.155478 2.95927,-0.306945 4.37121,-0.453816 1.41596,-0.09466 2.7843,-0.186463 4.09758,-0.274823 0.6552,-0.04473 1.29661,-0.08834 1.92371,-0.131377 0.62536,-0.04191 1.25186,-0.09521 1.78888,-0.09577 1.10672,-0.02929 2.15721,-0.05622 3.14346,-0.08202 0.98337,-0.03099 1.90248,-0.06029 2.75388,-0.08721 1.04937,-0.0068 2.01322,-0.01318 2.88299,-0.01892 0.95813,-0.0056 1.80495,-0.01014 2.529,-0.01375 1.62939,-0.009 2.90994,-1.388411 2.80324,-3.014363 l -3.66843,-55.978653 c -0.10725,-1.625939 -1.55652,-2.82676 -3.17271,-2.622505 -0.71888,0.09059 -1.55825,0.196785 -2.50892,0.316692 -0.88125,0.111885 -1.85715,0.236379 -2.91969,0.371779 -1.25533,0.186464 -2.61276,0.38726 -4.06372,0.60241 -1.44637,0.220311 -2.98627,0.454966 -4.60933,0.702251 -0.83076,0.117034 -1.59554,0.272513 -2.39819,0.42398 -0.80035,0.152617 -1.61906,0.309234 -2.45498,0.468735 -1.66897,0.322438 -3.4068,0.658645 -5.20716,1.006323 -1.78601,0.406775 -3.63341,0.827882 -5.53189,1.259907 -0.94722,0.217438 -1.90764,0.438324 -2.87953,0.662083 -0.97075,0.227195 -1.94438,0.50488 -2.93175,0.760187 -1.97075,0.524959 -3.98283,1.061399 -6.02988,1.606436 -2.02641,0.611019 -4.08668,1.231795 -6.1716,1.860604 -1.0396,0.321865 -2.09009,0.625363 -3.13428,0.969029 -1.03961,0.355137 -2.08665,0.711423 -3.13657,1.069995 -1.04821,0.359159 -2.10042,0.719457 -3.15551,1.081478 -1.05564,0.359159 -2.11303,0.72003 -3.15607,1.131391 -2.09124,0.798057 -4.19051,1.599562 -6.28978,2.401056 -2.0901,0.818137 -4.14576,1.724631 -6.20602,2.582349 -1.02698,0.437761 -2.05681,0.860017 -3.07174,1.309247 -1.00804,0.465298 -2.01264,0.928872 -3.01379,1.391296 -0.99887,0.462425 -1.99429,0.9237 -2.98396,1.382113 -0.98968,0.457828 -1.97535,0.908783 -2.93347,1.406203 -1.92314,0.970752 -3.82276,1.930023 -5.69081,2.873226 -1.86864,0.936905 -3.6495,1.970755 -5.4183,2.922579 -1.76077,0.969592 -3.49227,1.89444 -5.12568,2.891006 -1.64258,0.974201 -3.24042,1.922565 -4.78605,2.839391 -1.55021,0.904185 -2.98797,1.880673 -4.39706,2.763066 -1.3993,0.896737 -2.74011,1.756754 -4.01551,2.574325 -1.24786,0.85657 -2.43203,1.66897 -3.5445,2.432605 -1.10958,0.7642 -2.14803,1.47907 -3.10845,2.140578 -0.95928,0.661507 -1.80781,1.317281 -2.58981,1.884119 -1.05967,0.782565 -1.96444,1.450394 -2.69652,1.990845 -1.222612,0.902473 -1.50948,2.607013 -0.65462,3.864058 l 23.24459,34.17467 c 0.82732,1.2163 2.44467,1.59783 3.72579,0.87436 0.59038,-0.33276 1.28803,-0.72692 2.08378,-1.17557 0.69363,-0.38383 1.44407,-0.83707 2.29147,-1.27826 0.84682,-0.44177 1.7625,-0.91797 2.7407,-1.42744 0.97534,-0.51004 2.01379,-1.05279 3.10789,-1.62481 1.11304,-0.53356 2.28285,-1.09467 3.50376,-1.67986 1.22662,-0.57144 2.47105,-1.22606 3.81299,-1.79692 1.33163,-0.58463 2.70857,-1.18877 4.12453,-1.81012 1.40162,-0.64544 2.88643,-1.20941 4.38845,-1.81183 1.51006,-0.5852 3.02239,-1.24728 4.60647,-1.80667 1.57717,-0.56856 3.18131,-1.1463 4.8044,-1.73151 0.80494,-0.3058 1.6334,-0.56454 2.46359,-0.8296 0.82845,-0.26679 1.6615,-0.53472 2.49743,-0.8038 0.83419,-0.26965 1.67185,-0.54045 2.51178,-0.8124 0.84453,-0.25646 1.7011,-0.48595 2.55193,-0.7315 1.70915,-0.47275 3.40681,-0.99714 5.12799,-1.43661 1.72234,-0.42628 3.44467,-0.85257 5.16012,-1.27655 0.8514,-0.22662 1.71544,-0.4039 2.57546,-0.58118 0.85829,-0.18073 1.7143,-0.36089 2.56743,-0.54046 0.85027,-0.18072 1.69767,-0.3603 2.54104,-0.53931 0.84512,-0.16867 1.6948,-0.29891 2.53301,-0.44979 1.67644,-0.29089 3.33222,-0.5789 4.9616,-0.86117 1.63512,-0.22548 3.24328,-0.448078 4.81875,-0.665528 z"
     id="path298"
     style="fill:#e5e546;fill-opacity:1;stroke:#000000;stroke-width:0;stroke-dasharray:none;stroke-opacity:1" /><path
     d="m -8.3923189,244.89301 c -0.1440084,0.70911 -0.312681,1.53987 -0.5037307,2.4785 -0.1749934,0.86174 -0.3689164,1.81642 -0.5800444,2.85544 -0.207117,1.06254 -0.409637,2.31729 -0.635695,3.59785 -0.222598,1.29319 -0.458976,2.66898 -0.707974,4.11937 -0.120482,0.72289 -0.258181,1.46989 -0.372353,2.22319 -0.101519,0.74872 -0.204819,1.51407 -0.310958,2.29491 -0.403901,3.12855 -0.935755,6.49461 -1.242115,10.09073 -0.177868,1.79176 -0.360309,3.63171 -0.546772,5.51296 -0.153755,1.88355 -0.256458,3.81242 -0.388984,5.76768 -0.309819,3.90767 -0.366618,7.96049 -0.495709,12.06035 l -0.04191,1.54103 0.0079,1.54736 c 0.0056,1.03327 0.01149,2.06828 0.01724,3.10614 0.0068,1.03673 0.01262,2.07519 0.01836,3.1142 l 0.01014,1.55883 0.05971,1.55997 c 0.08428,2.07517 0.168674,4.15148 0.253021,6.21921 l 0.06366,1.54618 0.0195,0.50088 0.0276,0.37291 0.0551,0.74528 c 0.07346,0.99369 0.146296,1.98452 0.219162,2.97191 0.0729,0.98739 0.145733,1.97019 0.217449,2.94839 0.09927,1.01951 0.19736,2.03616 0.296039,3.04592 0.09927,1.00862 0.197935,2.01035 0.29604,3.00633 0.04935,0.49628 0.0987,0.99199 0.148019,1.48482 0.06141,0.48538 0.122781,0.96902 0.183602,1.45095 0.244401,1.92199 0.484802,3.81244 0.720031,5.66327 0.283994,1.84226 0.561678,3.64548 0.831329,5.39993 0.252435,1.75389 0.577747,3.45041 0.876648,5.0907 0.02467,0.13138 0.04935,0.26105 0.07346,0.39128 0.249572,1.34137 1.4165348,2.3127 2.7802933,2.3127 h 7.6254249 c 1.6282377,0 2.9202682,-1.37063 2.8244612,-2.99543 -0.0258,-0.43374 -0.05217,-0.87208 -0.08146,-1.31442 -0.0952,-1.5812 -0.20999,-3.21172 -0.246699,-4.89447 -0.05509,-1.67988 -0.111322,-3.40565 -0.169258,-5.16929 -0.01127,-1.76249 -0.02186,-3.56343 -0.03268,-5.39535 -0.0033,-0.45725 -0.0057,-0.91681 -0.009,-1.37695 0.01014,-0.45381 0.02006,-0.90992 0.03043,-1.36833 0.02005,-0.91338 0.04022,-1.83421 0.06084,-2.76079 0.02005,-0.92427 0.04079,-1.85543 0.06141,-2.79118 0.04586,-0.97935 0.09127,-1.96444 0.137698,-2.9524 0.04597,-0.98854 0.0924,-1.98109 0.138262,-2.97651 l 0.03504,-0.74757 0.01724,-0.37406 0.0022,-0.0469 c 0,-0.11878 0.0022,0.10963 0.0033,0.0705 l 0.0068,-0.0906 0.01431,-0.18016 0.115896,-1.44751 c 0.153766,-1.9306 0.308096,-3.86692 0.463,-5.8044 l 0.118183,-1.44982 0.16696,-1.44636 c 0.111322,-0.96272 0.222036,-1.92428 0.33276,-2.88413 0.110195,-0.95928 0.220311,-1.91626 0.329898,-2.8698 l 0.163511,-1.42743 0.211704,-1.41768 c 0.5806202,-3.7694 1.0740292,-7.4774 1.7969222,-11.02763 0.339069,-1.77856 0.642567,-3.52843 0.990819,-5.23182 0.3792382,-1.69652 0.7498672,-3.35631 1.1107502,-4.97193 0.667817,-3.23641 1.5335692,-6.24503 2.2381072,-9.03394 0.18073,-0.69592 0.357435,-1.37808 0.53013,-2.04362 0.182442,-0.65576 0.379226,-1.27653 0.56053,-1.89157 0.365468,-1.22376 0.712571,-2.38441 1.038446,-3.47621 0.333335,-1.10041 0.607009,-2.08437 0.925999,-3.07174 0.334484,-1.00747 0.640855,-1.93061 0.91854,-2.76538 0.301774,-0.90994 0.568562,-1.71316 0.796908,-2.40162 0.513488,-1.54505 -0.38325,-3.20141 -1.957561,-3.62079 l -19.1159696,-5.09765 c -1.5748868,-0.42055 -3.1767363,0.56915 -3.5014622,2.16582 z"
     id="path302"
     style="fill:#68e545;fill-opacity:1;stroke:#000000;stroke-width:0;stroke-dasharray:none;stroke-opacity:1" /><path
     d="m 39.417867,140.97026 c -0.702623,0.99867 -1.407895,2.002 -2.116468,3.00931 -0.706583,1.00664 -1.415814,2.01728 -2.127697,3.03123 -0.708555,1.01528 -1.371221,2.06829 -2.060485,3.10411 -1.358573,2.0855 -2.749035,4.15516 -4.07968,6.26384 -1.299402,2.12654 -2.598793,4.25307 -3.892895,6.37162 l -0.965448,1.58608 -0.916251,1.61186 c -0.608866,1.07147 -1.215732,2.14095 -1.820626,3.2051 -2.472736,4.22291 -4.619346,8.53864 -6.801625,12.63806 -1.015381,2.09001 -2.014233,4.14549 -2.991958,6.15776 -0.484877,1.0048 -0.965145,2.00029 -1.438785,2.98249 -0.4457462,0.99542 -0.8855342,1.97953 -1.3200452,2.95103 -0.8650537,1.939 -1.7063188,3.82616 -2.5205199,5.65085 -0.7590491,1.84779 -1.4930294,3.63248 -2.1972944,5.34539 -0.6903286,1.7182 -1.3881612,3.34417 -1.9825593,4.92208 -0.5864285,1.57921 -1.1431641,3.07806 -1.666941,4.48588 -0.5211097,1.40646 -1.0085833,2.7226 -1.45911705,3.93974 -0.41598265,1.22899 -0.79768755,2.35769 -1.14314065,3.37743 -0.4482397,1.34059 -0.8332174,2.49118 -1.1476415,3.43319 -0.5570238,1.66478 0.3001776,3.46765 1.9412149,4.09245 L 23.7641,238.66775 c 1.594539,0.60699 3.387109,-0.11011 4.119664,-1.6512 0.363304,-0.76288 0.797285,-1.67663 1.296007,-2.72593 0.413521,-0.86459 0.870634,-1.82219 1.369361,-2.86483 0.529971,-1.02815 1.102894,-2.13804 1.715454,-3.32568 0.610587,-1.18365 1.259491,-2.44572 1.944081,-3.77493 0.689903,-1.32523 1.484618,-2.68455 2.273181,-4.1202 0.798532,-1.42771 1.63078,-2.91591 2.492112,-4.45661 0.907867,-1.51095 1.846147,-3.0744 2.811534,-4.68171 0.480707,-0.80232 0.968028,-1.61531 1.461307,-2.43824 0.519185,-0.80773 1.044997,-1.62411 1.576102,-2.45178 1.062203,-1.64871 2.147568,-3.33197 3.251443,-5.04583 2.346039,-3.33776 4.639882,-6.85263 7.233388,-10.24341 0.633255,-0.85713 1.269162,-1.7169 1.907044,-2.57935 l 0.956169,-1.29464 1.002039,-1.26623 c 1.334272,-1.6885 2.67384,-3.38233 4.013419,-5.07614 1.364178,-1.67333 2.780243,-3.3036 4.156433,-4.94774 0.697742,-0.8161 1.36756,-1.64874 2.081952,-2.44234 0.715048,-0.79226 1.427444,-1.58252 2.13721,-2.36944 0.708426,-0.78627 1.413535,-1.56921 2.115341,-2.34883 0.695166,-0.78357 1.396994,-1.55323 2.126108,-2.29109 1.434303,-1.49226 2.851384,-2.96655 4.245299,-4.41756 1.391262,-1.44834 2.843837,-2.79262 4.214732,-4.1513 1.381534,-1.34874 2.717973,-2.67948 4.094502,-3.89943 1.353918,-1.23784 2.670732,-2.44173 3.945169,-3.60701 1.263785,-1.17191 2.566363,-2.21844 3.769386,-3.26873 1.211001,-1.03637 2.371663,-2.02947 3.475353,-2.97399 1.08396,-0.86216 2.11227,-1.6797 3.07828,-2.44931 0.96072,-0.76826 1.85982,-1.48794 2.69133,-2.15368 0.38161,-0.31686 0.89847,-0.69643 1.33515,-1.03002 0.44793,-0.34025 0.87533,-0.66385 1.28085,-0.9708 0.8833,-0.67052 1.6632,-1.2618 2.33114,-1.76785 1.50216,-1.13928 1.73009,-3.30512 0.50269,-4.73606 L 82.189191,97.524175 c -1.227392,-1.430944 -3.40291,-1.53539 -4.757321,-0.22454 -0.602032,0.582906 -1.306062,1.263615 -2.102139,2.034816 -0.365602,0.353332 -0.751055,0.726619 -1.155059,1.117229 -0.411287,0.40122 -0.802732,0.76657 -1.312631,1.29018 -0.974812,0.98801 -2.02842,2.0572 -3.154869,3.19892 -1.120477,1.14236 -2.313144,2.3579 -3.570701,3.63932 -1.168636,1.27192 -2.397524,2.60903 -3.67939,4.00401 -1.2659,1.40557 -2.631344,2.82199 -3.951997,4.37439 -1.325979,1.54444 -2.696319,3.14143 -4.105711,4.78233 -1.426697,1.62166 -2.806659,3.36338 -4.22637,5.13041 -1.409087,1.77631 -2.894508,3.54879 -4.311323,5.42668 -1.412825,1.87788 -2.848802,3.787 -4.301993,5.72074 -0.738558,0.95826 -1.444516,1.94764 -2.14182,2.9516 z"
     id="path300"
     style="fill:#b6e545;fill-opacity:1;stroke:#000000;stroke-width:0;stroke-dasharray:none;stroke-opacity:1" /><path
     d="m 499.70066,197.73666 c 1.46691,-0.59065 2.13607,-2.28972 1.45967,-3.71877 -0.30061,-0.63521 -0.65189,-1.37784 -1.04993,-2.2179 -0.37579,-0.78943 -0.79109,-1.66344 -1.24201,-2.61485 -0.58398,-1.18967 -1.21528,-2.47566 -1.89056,-3.85015 -0.68029,-1.36894 -1.40345,-2.82583 -2.16725,-4.36122 -0.3869,-0.79833 -0.76715,-1.4569 -1.16518,-2.20621 -0.39637,-0.73263 -0.80221,-1.48195 -1.21696,-2.24742 -0.83338,-1.5276 -1.68569,-3.12478 -2.60037,-4.76038 -0.94472,-1.61778 -1.92118,-3.29122 -2.92492,-5.01143 -0.50325,-0.85789 -1.01376,-1.728 -1.53037,-2.60761 -0.54056,-0.86623 -1.08779,-1.74303 -1.6406,-2.62931 -1.11175,-1.7653 -2.24797,-3.56958 -3.40258,-5.40337 -2.43669,-3.59073 -4.86224,-7.34625 -7.5695,-11.00098 -0.66471,-0.92024 -1.3333,-1.84382 -2.00302,-2.77017 l -1.00763,-1.38841 -1.04883,-1.3656 c -1.4029,-1.81653 -2.81135,-3.63918 -4.21981,-5.46237 -1.4335,-1.80205 -2.91657,-3.56625 -4.37012,-5.33712 -0.73486,-0.87959 -1.44688,-1.77199 -2.19676,-2.63154 -0.75211,-0.85677 -1.50142,-1.71131 -2.24908,-2.5625 -0.74764,-0.84786 -1.49197,-1.69405 -2.23294,-2.53523 -0.73653,-0.84453 -1.47916,-1.67457 -2.24518,-2.47734 -1.51648,-1.615 -3.01398,-3.20995 -4.48704,-4.77929 -1.47526,-1.56435 -3.00285,-3.03459 -4.45641,-4.50429 -1.46412,-1.4619 -2.88706,-2.89765 -4.34005,-4.23095 -1.43686,-1.34499 -2.8353,-2.65325 -4.18697,-3.91919 -1.34611,-1.268731 -2.72062,-2.421106 -4.00104,-3.562351 -1.29099,-1.128995 -2.52853,-2.210666 -3.7054,-3.239453 -1.20696,-0.99483 -2.35208,-1.937886 -3.42763,-2.824163 -1.07667,-0.88293 -2.08376,-1.709074 -3.01512,-2.472874 -0.93303,-0.761011 -1.82542,-1.420705 -2.61205,-2.035867 -1.1457,-0.879028 -2.11324,-1.621675 -2.88206,-2.211783 -1.17185,-0.89963 -2.84253,-0.707564 -3.78446,0.432008 l -47.99007,58.089783 c -0.90465,1.09558 -0.82727,2.69667 0.18204,3.6965 0.40138,0.39638 0.86455,0.85511 1.38564,1.37116 0.49936,0.50159 1.07165,1.03268 1.65842,1.65285 0.58677,0.61961 1.22028,1.29045 1.89779,2.00638 0.67863,0.71257 1.40012,1.47078 2.16002,2.27021 0.73318,0.82504 1.50422,1.69405 2.30864,2.5998 0.79443,0.91412 1.66288,1.82154 2.48903,2.83362 0.83339,1.00207 1.6946,2.03755 2.58089,3.10252 0.90241,1.04548 1.76362,2.1806 2.65546,3.32741 0.88237,1.15462 1.82543,2.29307 2.71171,3.51391 0.88682,1.21695 1.78812,2.45395 2.70056,3.70653 0.46542,0.61627 0.90689,1.25927 1.34166,1.91173 0.43979,0.64799 0.88182,1.29823 1.32552,1.9518 0.44424,0.65023 0.89127,1.30379 1.33831,1.95959 0.44647,0.6558 0.85566,1.34166 1.28709,2.01248 0.84731,1.35391 1.72578,2.68777 2.55862,4.05113 0.81165,1.37674 1.62389,2.75402 2.43223,4.12519 l 0.6068,1.02322 0.5684,1.04493 c 0.37967,0.69365 0.75768,1.38619 1.13458,2.07482 1.55596,2.72175 2.86924,5.52808 4.24374,8.16464 0.62907,1.35166 1.24758,2.67996 1.85325,3.98153 0.30286,0.64801 0.60237,1.28932 0.89853,1.92231 0.27445,0.64466 0.54502,1.28096 0.81222,1.90949 0.53724,1.25034 1.05942,2.46842 1.56546,3.64473 0.46708,1.19301 0.918,2.34538 1.35112,3.45099 0.21711,0.55227 0.42866,1.09282 0.63577,1.62114 0.19595,0.5155 0.43867,1.07333 0.56894,1.50254 0.30897,0.90129 0.60124,1.75695 0.87624,2.56083 0.28058,0.79832 0.54391,1.54485 0.78664,2.23572 0.31899,0.95253 0.61182,1.82543 0.87624,2.61483 0.2945,0.88183 0.55393,1.66122 0.77661,2.32926 0.49992,1.49919 2.16001,2.26357 3.62693,1.67456 z"
     id="path292"
     style="fill:#e57746;fill-opacity:1;stroke:#000000;stroke-width:0;stroke-dasharray:none;stroke-opacity:1" /><path
     d="m 389.31386,74.468518 c 0.84142,-1.338921 0.38653,-3.107443 -0.99961,-3.867912 -0.61609,-0.33805 -1.33625,-0.733369 -2.15143,-1.180155 -0.76745,-0.418833 -1.61653,-0.882994 -2.53986,-1.388929 -1.17087,-0.620818 -2.43657,-1.291887 -3.78978,-2.008828 -1.35404,-0.709503 -2.79439,-1.46508 -4.31369,-2.260382 -0.78169,-0.41952 -1.47597,-0.729771 -2.23791,-1.103075 -0.7508,-0.360761 -1.51908,-0.729493 -2.30403,-1.106077 -1.57108,-0.748174 -3.19831,-1.541581 -4.89861,-2.329527 -1.71414,-0.755885 -3.48667,-1.538233 -5.30871,-2.342442 -0.91085,-0.399497 -1.83474,-0.804648 -2.76915,-1.213888 -0.94593,-0.384368 -1.90349,-0.773385 -2.87113,-1.166803 -1.93597,-0.777371 -3.91463,-1.57194 -5.92548,-2.379608 -4.07988,-1.478361 -8.2474,-3.096691 -12.58393,-4.468142 -1.07816,-0.355264 -2.16144,-0.71096 -3.24727,-1.068245 l -1.63054,-0.533231 -1.65053,-0.490577 c -2.20179,-0.648045 -4.41169,-1.297778 -6.62191,-1.947955 -2.2181,-0.618359 -4.45411,-1.176997 -6.67016,-1.75834 -1.11114,-0.281197 -2.21129,-0.586177 -3.32283,-0.84233 -1.11172,-0.252598 -2.21987,-0.50503 -3.32471,-0.755723 -1.10287,-0.248 -2.20208,-0.4966 -3.29563,-0.743101 -1.09191,-0.251829 -2.1803,-0.488337 -3.27159,-0.689045 -2.17556,-0.418201 -4.32399,-0.831296 -6.43759,-1.238002 -2.11245,-0.401365 -4.21209,-0.695818 -6.25143,-1.033262 -2.04335,-0.324936 -4.03798,-0.652844 -5.99687,-0.880164 -1.95267,-0.246262 -3.85266,-0.485305 -5.69,-0.717511 -1.83442,-0.237738 -3.62361,-0.364584 -5.33004,-0.537617 -1.70783,-0.156901 -3.34461,-0.306841 -4.90123,-0.449553 -1.56106,-0.09756 -3.04167,-0.189465 -4.43263,-0.276207 -1.38992,-0.08337 -2.69014,-0.161582 -3.89248,-0.233729 -1.20206,-0.06891 -2.31178,-0.0796 -3.30969,-0.116296 -1.44351,-0.03972 -2.66274,-0.07351 -3.63155,-0.100347 -1.47679,-0.04106 -2.71706,1.094612 -2.81133,2.570078 l -1.70854,56.742508 c -0.0897,1.417956 0.9121,2.669166 2.31605,2.886734 0.55759,0.08552 1.20179,0.185293 1.92653,0.297482 0.69866,0.11324 1.4737,0.207592 2.31271,0.365589 0.8387,0.157542 1.74529,0.329124 2.71397,0.511441 0.96761,0.178925 1.99672,0.369688 3.08111,0.571281 1.07777,0.237993 2.21199,0.489401 3.39484,0.750984 1.1796,0.274202 2.41527,0.499572 3.67805,0.834513 1.26279,0.322569 2.56771,0.655881 3.91023,0.998376 1.34415,0.317249 2.70752,0.731259 4.10255,1.136749 1.39195,0.41738 2.82356,0.78607 4.25751,1.2548 1.43213,0.46525 2.88773,0.93825 4.36149,1.41731 0.73846,0.22604 1.4732,0.48775 2.20806,0.76107 0.73633,0.26675 1.47577,0.53399 2.21851,0.80298 0.74123,0.26595 1.48668,0.53296 2.23343,0.8018 0.74631,0.26914 1.48004,0.58451 2.22298,0.87465 1.48048,0.59935 2.97441,1.16417 4.44872,1.77966 1.46496,0.63873 2.93075,1.27758 4.38978,1.91376 l 1.0917,0.47266 1.07334,0.51274 c 0.7144,0.339 1.42683,0.67807 2.13605,1.01463 2.8568,1.29131 5.56673,2.7935 8.22662,4.12228 1.30242,0.72557 2.58256,1.4384 3.83666,2.13712 0.62542,0.34708 1.24421,0.69073 1.8554,1.0296 0.60048,0.36103 1.19288,0.71762 1.778,1.06984 1.1686,0.6974 2.30609,1.37747 3.40601,2.03321 1.07815,0.69211 2.11937,1.36079 3.11874,2.00205 0.49983,0.31986 0.98827,0.6335 1.46593,0.93985 0.46113,0.3025 0.98495,0.61186 1.34224,0.88302 0.77898,0.54863 1.51766,1.0701 2.21197,1.55977 0.69556,0.48189 1.34678,0.93198 1.94866,1.34906 0.81715,0.58423 1.56639,1.11935 2.24365,1.6035 0.75583,0.54135 1.42317,1.02032 1.99543,1.43069 1.28437,0.92079 3.07717,0.56587 3.91958,-0.7717 z"
     id="path292-3"
     style="fill:#e5ac46;fill-opacity:1;stroke:#000000;stroke-width:0;stroke-dasharray:none;stroke-opacity:1"
     sodipodi:nodetypes="csccccccccccccccccccccccccccccccccccccccccccccccccccccccccccccccccccc" /><circle
     style="fill:#cccccc;fill-opacity:1;stroke:none;stroke-width:0;stroke-linecap:round;stroke-linejoin:round;stroke-dasharray:none;paint-order:markers fill stroke"
     id="circle3146"
     cx="254.29581"
     cy="306.63821"
     r="49.641003" /></g><path
   d="m 235.82135,285.12718 c 4.8217,3.19151 10.12204,5.09873 15.49399,5.80107 13.48462,1.76325 27.42611,-4.05528 35.43821,-16.15928 1.54286,-2.32981 2.84446,-4.95454 3.79522,-7.46253 l 57.78489,-155.18052 22.00638,-59.098005 13.63297,-36.609592 c 1.58657,-4.260697 -1.51657,-7.7103047 -5.02244,-8.1687253 -2.05229,-0.2683552 -4.24302,0.4886382 -5.71244,2.7077003 L 350.80663,44.84378 317.71535,94.833423 225.46247,234.19482 c -11.20402,16.92515 -6.56606,39.72877 10.35868,50.93226 z m 24.06819,-49.25939 c 9.86423,1.28984 16.81543,10.33181 15.52553,20.19652 -1.28979,9.86377 -10.33229,16.81536 -20.19654,15.52553 -9.86423,-1.28984 -16.81531,-10.33276 -15.52551,-20.19653 1.29001,-9.86567 10.33228,-16.81536 20.19652,-15.52552 z"
   id="path304"
   style="fill:#000000;fill-opacity:1;stroke:none;stroke-width:0;stroke-dasharray:none" /></g></svg>
