<?xml version="1.0" encoding="UTF-8" standalone="no"?>
<!-- Generator: Adobe Illustrator 24.1.1, SVG Export Plug-In . SVG Version: 6.00 Build 0)  -->

<svg
   version="1.1"
   id="Layer_1"
   x="0px"
   y="0px"
   viewBox="0 0 512 512"
   style="enable-background:new 0 0 512 512;"
   xml:space="preserve"
   sodipodi:docname="icon.svg"
   inkscape:version="1.2 (dc2aedaf03, 2022-05-15)"
   inkscape:export-filename="icon2.png"
   inkscape:export-xdpi="92.0804"
   inkscape:export-ydpi="92.0804"
   xmlns:inkscape="http://www.inkscape.org/namespaces/inkscape"
   xmlns:sodipodi="http://sodipodi.sourceforge.net/DTD/sodipodi-0.dtd"
   xmlns="http://www.w3.org/2000/svg"
   xmlns:svg="http://www.w3.org/2000/svg"><defs
   id="defs9">
	
</defs><sodipodi:namedview
   id="namedview7"
   pagecolor="#505050"
   bordercolor="#ffffff"
   borderopacity="1"
   inkscape:showpageshadow="0"
   inkscape:pageopacity="0"
   inkscape:pagecheckerboard="1"
   inkscape:deskcolor="#505050"
   showgrid="false"
   inkscape:zoom="0.54759346"
   inkscape:cx="99.526389"
   inkscape:cy="333.27644"
   inkscape:window-width="1920"
   inkscape:window-height="996"
   inkscape:window-x="-8"
   inkscape:window-y="-8"
   inkscape:window-maximized="1"
   inkscape:current-layer="Layer_1" />
<style
   type="text/css"
   id="style2">
	.st0{fill:#333333;}
</style>

<circle
   style="fill:#212e4a;fill-opacity:1;stroke:#ebce00;stroke-width:0;stroke-linecap:round;stroke-linejoin:round;paint-order:markers fill stroke"
   id="path340-3"
   cx="256"
   cy="256"
   r="247.9071" /><circle
   style="fill:#3d3d3d;fill-opacity:1;stroke:none;stroke-width:0;stroke-linecap:round;stroke-linejoin:round;paint-order:markers fill stroke"
   id="path340"
   cx="256"
   cy="256"
   r="108.6534" /><path
   id="circle3850"
   style="fill:#dac8a2;fill-opacity:1;stroke:#ded1b5;stroke-width:38.0003;stroke-linecap:round;stroke-linejoin:round;stroke-dasharray:none;stroke-opacity:1;paint-order:markers fill stroke"
   d="M 256,124.13253 A 131.86782,131.86782 0 0 0 124.13253,256 131.86782,131.86782 0 0 0 256,387.86747 131.86782,131.86782 0 0 0 387.86747,256 131.86782,131.86782 0 0 0 256,124.13253 Z m 0,4.6745 A 127.19261,127.19261 0 0 1 383.19297,256 127.19261,127.19261 0 0 1 256,383.19297 127.19261,127.19261 0 0 1 128.80703,256 127.19261,127.19261 0 0 1 256,128.80703 Z" /><g
   id="g5959"
   transform="matrix(0,0.93463622,-0.93463622,0,495.26687,16.733127)"><path
     id="path5955"
     style="fill:#ded1b5;stroke:#ded1b5;stroke-width:0;stroke-linecap:round;stroke-linejoin:round;paint-order:markers fill stroke"
     d="M 256,2.2360684e-7 293.73741,75.474802 l -75.47481,3e-6 z"
     sodipodi:nodetypes="cccc" /><path
     id="path5957"
     style="fill:#ded1b5;stroke:#ded1b5;stroke-width:0;stroke-linecap:round;stroke-linejoin:round;paint-order:markers fill stroke"
     d="M 256,512 218.26259,436.5252 H 293.7374 Z"
     sodipodi:nodetypes="cccc" /></g><circle
   style="fill:#ffffff;fill-opacity:1;stroke:#3f3f3f;stroke-width:29.442;stroke-linecap:round;stroke-linejoin:round;stroke-dasharray:none;stroke-opacity:1;paint-order:markers fill stroke"
   id="circle6486"
   cx="256"
   cy="256"
   r="62.147758" /><path
   id="path5979"
   style="fill:#ffffff;fill-opacity:1;stroke:#ded1b5;stroke-width:0;stroke-linecap:round;stroke-linejoin:round;paint-order:markers fill stroke"
   d="m 255.99999,21.684643 34.40624,68.812462 -68.81247,2e-6 z"
   sodipodi:nodetypes="cccc" /><path
   id="path5981"
   style="fill:#ffffff;fill-opacity:1;stroke:#ded1b5;stroke-width:0;stroke-linecap:round;stroke-linejoin:round;paint-order:markers fill stroke"
   d="m 255.99999,488.48918 -34.40623,-68.81246 h 68.81246 z"
   sodipodi:nodetypes="cccc" /><g
   id="g5989"
   transform="matrix(-0.5002357,0.5002357,-0.5002357,-0.5002357,512.12067,256)"><path
     id="path5985"
     style="fill:#ded1b5;stroke:#ded1b5;stroke-width:0;stroke-linecap:round;stroke-linejoin:round;paint-order:markers fill stroke"
     d="M 256,2.2360684e-7 293.73741,75.474802 l -75.47481,3e-6 z"
     sodipodi:nodetypes="cccc" /><path
     id="path5987"
     style="fill:#ded1b5;stroke:#ded1b5;stroke-width:0;stroke-linecap:round;stroke-linejoin:round;paint-order:markers fill stroke"
     d="M 256,512 218.26259,436.5252 H 293.7374 Z"
     sodipodi:nodetypes="cccc" /></g><g
   id="g5995"
   transform="matrix(0.5002357,0.5002357,-0.5002357,0.5002357,256,-0.12067921)"><path
     id="path5991"
     style="fill:#ded1b5;stroke:#ded1b5;stroke-width:0;stroke-linecap:round;stroke-linejoin:round;paint-order:markers fill stroke"
     d="M 256,2.2360684e-7 293.73741,75.474802 l -75.47481,3e-6 z"
     sodipodi:nodetypes="cccc" /><path
     id="path5993"
     style="fill:#ded1b5;stroke:#ded1b5;stroke-width:0;stroke-linecap:round;stroke-linejoin:round;paint-order:markers fill stroke"
     d="M 256,512 218.26259,436.5252 H 293.7374 Z"
     sodipodi:nodetypes="cccc" /></g></svg>
